<?xml version="1.0" encoding="utf-8"?>
<!-- Generator: Adobe Illustrator 16.0.0, SVG Export Plug-In . SVG Version: 6.00 Build 0)  -->
<!DOCTYPE svg PUBLIC "-//W3C//DTD SVG 1.1//EN" "http://www.w3.org/Graphics/SVG/1.1/DTD/svg11.dtd">
<svg version="1.1" id="Layer_4" xmlns="http://www.w3.org/2000/svg" xmlns:xlink="http://www.w3.org/1999/xlink" x="0px" y="0px"
	 width="98px" height="17.688px" viewBox="0 0 98 17.688" enable-background="new 0 0 98 17.688" xml:space="preserve">
<path fill="#00A6D3" d="M9.271,14.984H3.85V2.415h4.818c0.839,0,1.563,0.103,2.17,0.305c0.609,0.204,1.066,0.479,1.373,0.827
	c0.555,0.647,0.833,1.378,0.833,2.194c0,0.983-0.313,1.714-0.938,2.194c-0.213,0.168-0.362,0.272-0.444,0.315
	c-0.082,0.042-0.23,0.111-0.442,0.206c0.766,0.168,1.378,0.52,1.833,1.052c0.456,0.535,0.682,1.196,0.682,1.988
	c0,0.875-0.295,1.648-0.885,2.319C12.164,14.595,10.971,14.984,9.271,14.984z M6.614,7.504h1.31c0.769,0,1.338-0.084,1.71-0.252
	c0.372-0.167,0.558-0.53,0.558-1.087c0-0.557-0.171-0.926-0.514-1.106C9.335,4.879,8.756,4.789,7.942,4.789H6.614V7.504z
	 M6.614,12.611h1.896c0.791,0,1.384-0.099,1.78-0.297c0.396-0.198,0.593-0.587,0.593-1.169c0-0.581-0.21-0.965-0.628-1.15
	c-0.42-0.186-1.09-0.279-2.011-0.279H6.614V12.611z"/>
<path fill="#00A6D3" d="M15.501,14.984V2.415h2.763v10.069h5.279v2.5H15.501z"/>
<polygon fill="#00A6D3" points="33.082,2.415 30.407,2.415 25.058,14.984 27.999,14.984 29.15,12.269 31.753,6.155 35.492,14.984 
	38.432,14.984 "/>
<polygon fill="#FFFFFF" points="79.167,2.415 76.492,2.415 71.142,14.984 74.083,14.984 75.234,12.269 77.838,6.155 81.576,14.984 
	84.516,14.984 "/>
<path fill="#00A6D3" d="M42.675,4.924c-0.266,0.222-0.399,0.515-0.399,0.88c0,0.367,0.162,0.656,0.486,0.873
	c0.326,0.216,1.075,0.471,2.25,0.764c1.175,0.294,2.088,0.734,2.738,1.323c0.649,0.587,0.975,1.444,0.975,2.57
	c0,1.127-0.417,2.042-1.25,2.742c-0.833,0.702-1.929,1.052-3.286,1.052c-1.96,0-3.726-0.736-5.296-2.211l1.646-2.05
	c1.334,1.187,2.569,1.78,3.704,1.78c0.507,0,0.905-0.109,1.194-0.332c0.29-0.222,0.435-0.522,0.435-0.899
	c0-0.377-0.154-0.677-0.46-0.899c-0.307-0.221-0.916-0.446-1.825-0.674c-1.44-0.348-2.495-0.801-3.161-1.357
	c-0.667-0.558-1.001-1.434-1.001-2.626c0-1.192,0.421-2.113,1.267-2.759c0.843-0.647,1.897-0.971,3.162-0.971
	c0.827,0,1.653,0.144,2.48,0.431c0.826,0.288,1.547,0.696,2.161,1.223l-1.4,2.05C46.02,5.004,44.91,4.59,43.764,4.59
	C43.304,4.59,42.94,4.702,42.675,4.924z"/>
<path fill="#00A6D3" d="M56.216,4.842v10.142h-2.762V4.842h-3.507V2.415h9.777v2.427H56.216z"/>
<path fill="#FFFFFF" d="M70.272,3.539c0.868,0.75,1.302,1.9,1.302,3.454c0,1.551-0.445,2.687-1.337,3.406
	c-0.891,0.72-2.253,1.079-4.083,1.079h-1.648v3.506h-2.763V2.415h4.375C68.021,2.415,69.404,2.789,70.272,3.539z M68.244,8.484
	c0.331-0.379,0.497-0.93,0.497-1.655s-0.216-1.24-0.646-1.546c-0.432-0.305-1.102-0.459-2.011-0.459h-1.577v4.227h1.86
	C67.288,9.051,67.914,8.862,68.244,8.484z"/>
<path fill="#FFFFFF" d="M89.563,14.984H86.8v-4.963l-4.286-7.605h2.993l2.675,4.676l2.675-4.676h2.994l-4.288,7.605V14.984z"/>
</svg>
