<?xml version="1.0" encoding="utf-8"?>
<!-- Generator: Adobe Illustrator 16.0.0, SVG Export Plug-In . SVG Version: 6.00 Build 0)  -->
<!DOCTYPE svg PUBLIC "-//W3C//DTD SVG 1.1//EN" "http://www.w3.org/Graphics/SVG/1.1/DTD/svg11.dtd">
<svg version="1.1" id="Layer_4" xmlns="http://www.w3.org/2000/svg" xmlns:xlink="http://www.w3.org/1999/xlink" x="0px" y="0px"
	 width="146.874px" height="24.395px" viewBox="0 0 146.874 24.395" enable-background="new 0 0 146.874 24.395"
	 xml:space="preserve">
<g>
	<path fill="#00A6D3" d="M10.194,22.104H1.59V2.449h7.647c1.332,0,2.48,0.161,3.445,0.479c0.966,0.318,1.691,0.749,2.179,1.292
		c0.88,1.014,1.322,2.156,1.322,3.431c0,1.539-0.496,2.681-1.49,3.432c-0.339,0.262-0.574,0.425-0.704,0.492
		c-0.131,0.065-0.366,0.172-0.702,0.322c1.217,0.263,2.188,0.812,2.91,1.644c0.722,0.836,1.082,1.872,1.082,3.108
		c0,1.368-0.468,2.578-1.405,3.626C14.786,21.497,12.893,22.104,10.194,22.104z M5.977,10.408h2.081
		c1.219,0,2.123-0.132,2.713-0.394c0.59-0.263,0.886-0.83,0.886-1.701c0-0.872-0.271-1.448-0.815-1.73
		c-0.544-0.279-1.463-0.421-2.756-0.421H5.977V10.408z M5.977,18.393h3.009c1.254,0,2.196-0.154,2.825-0.464
		c0.628-0.31,0.942-0.918,0.942-1.828c0-0.908-0.333-1.508-0.997-1.798c-0.667-0.291-1.73-0.437-3.193-0.437H5.977V18.393z"/>
	<path fill="#00A6D3" d="M20.084,22.104V2.449h4.386v15.747h8.38v3.908H20.084z"/>
	<polygon fill="#00A6D3" points="47.992,2.449 43.746,2.449 35.254,22.104 39.921,22.104 41.75,17.858 45.883,8.299 51.817,22.104 
		56.483,22.104 	"/>
	<polygon fill="#3A3A3A" points="121.144,2.449 116.897,2.449 108.407,22.104 113.074,22.104 114.902,17.858 119.035,8.299 
		124.969,22.104 129.636,22.104 	"/>
	<path fill="#00A6D3" d="M63.22,6.373c-0.422,0.347-0.633,0.806-0.633,1.377c0,0.573,0.257,1.026,0.772,1.365
		c0.517,0.338,1.706,0.736,3.572,1.194c1.866,0.46,3.313,1.148,4.345,2.068c1.03,0.918,1.546,2.258,1.546,4.02
		s-0.661,3.192-1.983,4.288c-1.321,1.096-3.061,1.645-5.217,1.645c-3.111,0-5.914-1.152-8.406-3.458l2.614-3.207
		c2.117,1.856,4.078,2.784,5.878,2.784c0.805,0,1.438-0.172,1.896-0.521c0.46-0.347,0.69-0.815,0.69-1.406
		c0-0.59-0.244-1.059-0.731-1.406c-0.487-0.346-1.454-0.698-2.897-1.054c-2.286-0.543-3.959-1.253-5.018-2.123
		c-1.059-0.872-1.589-2.241-1.589-4.107c0-1.863,0.669-3.303,2.011-4.314C61.409,2.507,63.083,2,65.088,2
		c1.314,0,2.625,0.226,3.938,0.675c1.311,0.45,2.456,1.088,3.431,1.912l-2.223,3.206c-1.706-1.294-3.467-1.941-5.286-1.941
		C64.217,5.852,63.641,6.026,63.22,6.373z"/>
	<path fill="#00A6D3" d="M84.713,6.247v15.857h-4.385V6.247h-5.566V2.449h15.519v3.797H84.713z"/>
	<path fill="#3A3A3A" d="M107.026,4.208c1.378,1.173,2.066,2.971,2.066,5.399c0,2.427-0.707,4.203-2.123,5.327
		c-1.414,1.126-3.575,1.687-6.48,1.687h-2.615v5.483h-4.387V2.449h6.945C103.452,2.449,105.648,3.035,107.026,4.208z M103.807,11.94
		c0.525-0.592,0.788-1.453,0.788-2.588c0-1.134-0.341-1.939-1.026-2.418c-0.685-0.477-1.75-0.717-3.192-0.717h-2.502v6.608h2.952
		C102.288,12.826,103.282,12.531,103.807,11.94z"/>
	<path fill="#3A3A3A" d="M137.648,22.104h-4.387v-7.761l-6.803-11.894h4.75l4.246,7.312l4.247-7.312h4.752l-6.805,11.894V22.104z"/>
</g>
</svg>
