<?xml version="1.0" encoding="utf-8"?>
<!-- Generator: Adobe Illustrator 16.0.0, SVG Export Plug-In . SVG Version: 6.00 Build 0)  -->
<!DOCTYPE svg PUBLIC "-//W3C//DTD SVG 1.1//EN" "http://www.w3.org/Graphics/SVG/1.1/DTD/svg11.dtd">
<svg version="1.1" id="Layer_1" xmlns="http://www.w3.org/2000/svg" xmlns:xlink="http://www.w3.org/1999/xlink" x="0px" y="0px"
	 width="128px" height="128px" viewBox="0 0 128 128" enable-background="new 0 0 128 128" xml:space="preserve">
<g>
	<path fill="#FFFFFF" d="M120.045,36H55.952C51.567,36,48,39.545,48,43.904v40.192C48,88.454,51.567,92,55.952,92h64.093
		c4.387,0,7.955-3.546,7.955-7.904V43.904C128,39.545,124.432,36,120.045,36z M113.52,44L88.607,66.311L62.703,44H113.52z M56,84
		V48.785l30.049,25.879c0.751,0.646,1.682,0.969,2.61,0.969c0.954,0,1.909-0.341,2.669-1.021L120,48.936V84H56z"/>
	<path fill="#FFFFFF" d="M36,44H4c-2.209,0-4,1.791-4,4s1.791,4,4,4h32c2.209,0,4-1.791,4-4S38.209,44,36,44z"/>
	<path fill="#FFFFFF" d="M36,60H16c-2.209,0-4,1.791-4,4s1.791,4,4,4h20c2.209,0,4-1.791,4-4S38.209,60,36,60z"/>
	<path fill="#FFFFFF" d="M36,76h-8c-2.209,0-4,1.791-4,4s1.791,4,4,4h8c2.209,0,4-1.791,4-4S38.209,76,36,76z"/>
</g>
</svg>
