<?xml version="1.0" encoding="utf-8"?>
<!-- Generator: Adobe Illustrator 16.0.0, SVG Export Plug-In . SVG Version: 6.00 Build 0)  -->
<!DOCTYPE svg PUBLIC "-//W3C//DTD SVG 1.1//EN" "http://www.w3.org/Graphics/SVG/1.1/DTD/svg11.dtd">
<svg version="1.1" id="Layer_1" xmlns="http://www.w3.org/2000/svg" xmlns:xlink="http://www.w3.org/1999/xlink" x="0px" y="0px"
	 width="48px" height="48px" viewBox="0 0 48 48" enable-background="new 0 0 48 48" xml:space="preserve">
<g>
	<line fill="#F23C3C" x1="23.998" y1="22.472" x2="23.998" y2="25.249"/>
	<path fill="#F23C3C" d="M23.998,25.661c-0.23,0-0.417-0.185-0.417-0.412v-2.777c0-0.227,0.187-0.411,0.417-0.411
		s0.417,0.184,0.417,0.411v2.777C24.414,25.477,24.228,25.661,23.998,25.661z"/>
</g>
<path fill="#F23C3C" d="M24.662,28.024c0,0.363-0.298,0.656-0.662,0.656c-0.368,0-0.664-0.293-0.664-0.656
	c0-0.359,0.295-0.654,0.664-0.654C24.364,27.37,24.662,27.665,24.662,28.024"/>
<path fill="#F23C3C" d="M32.837,32.001H15.161c-0.471,0-0.85-0.187-1.039-0.513c-0.191-0.333-0.158-0.759,0.089-1.172l8.793-14.674
	c0.244-0.408,0.606-0.641,0.995-0.641c0.389,0,0.751,0.233,0.996,0.641l8.792,14.674c0.248,0.413,0.279,0.839,0.09,1.172
	C33.688,31.814,33.31,32.001,32.837,32.001z M24,15.824c-0.084,0-0.192,0.091-0.278,0.237l-8.793,14.676
	c-0.099,0.163-0.112,0.289-0.082,0.342c0.026,0.046,0.124,0.098,0.314,0.098h17.676c0.191,0,0.29-0.052,0.314-0.098
	c0.031-0.053,0.018-0.179-0.081-0.342l-8.793-14.676C24.19,15.915,24.083,15.824,24,15.824z"/>
</svg>
