<?xml version="1.0" encoding="utf-8"?>
<!-- Generator: Adobe Illustrator 16.0.0, SVG Export Plug-In . SVG Version: 6.00 Build 0)  -->
<!DOCTYPE svg PUBLIC "-//W3C//DTD SVG 1.1//EN" "http://www.w3.org/Graphics/SVG/1.1/DTD/svg11.dtd">
<svg version="1.1" id="Layer_1" xmlns="http://www.w3.org/2000/svg" xmlns:xlink="http://www.w3.org/1999/xlink" x="0px" y="0px"
	 width="589px" height="426px" viewBox="0 0 589 426" enable-background="new 0 0 589 426" xml:space="preserve">
<path fill="none" stroke="#6A7071" stroke-width="2.8788" stroke-miterlimit="10" d="M89.474,258.479c0,1.59-1.29,2.876-2.879,2.876
	H8.868c-1.592,0-2.879-1.287-2.879-2.876v-50.38c0-1.589,1.287-2.879,2.879-2.879h77.727c1.589,0,2.879,1.29,2.879,2.879V258.479z"
	/>
<path fill="none" stroke="#6A7071" stroke-width="2.8788" stroke-miterlimit="10" d="M211.975,258.479
	c0,1.59-1.289,2.876-2.878,2.876h-77.73c-1.587,0-2.878-1.287-2.878-2.876v-50.38c0-1.589,1.291-2.879,2.878-2.879h77.73
	c1.589,0,2.878,1.29,2.878,2.879V258.479z"/>
<path fill="none" stroke="#6A7071" stroke-width="2.8788" stroke-miterlimit="10" d="M336.507,258.479
	c0,1.59-1.291,2.876-2.88,2.876H255.9c-1.59,0-2.878-1.287-2.878-2.876v-50.38c0-1.589,1.288-2.879,2.878-2.879h77.727
	c1.589,0,2.88,1.29,2.88,2.879V258.479z"/>
<path fill="none" stroke="#6A7071" stroke-width="2.8788" stroke-miterlimit="10" d="M461.83,258.479c0,1.59-1.29,2.876-2.878,2.876
	h-77.729c-1.587,0-2.877-1.287-2.877-2.876v-50.38c0-1.589,1.291-2.879,2.877-2.879h77.729c1.588,0,2.878,1.29,2.878,2.879V258.479z
	"/>
<path fill="none" stroke="#6A7071" stroke-width="2.8788" stroke-miterlimit="10" d="M583.833,258.479
	c0,1.59-1.292,2.876-2.879,2.876h-77.729c-1.592,0-2.878-1.287-2.878-2.876v-50.38c0-1.589,1.286-2.879,2.878-2.879h77.729
	c1.587,0,2.879,1.29,2.879,2.879V258.479z"/>
<line fill="none" stroke="#6A7071" stroke-width="2.8788" stroke-miterlimit="10" x1="294.328" y1="267.114" x2="294.328" y2="344.842"/>
<path fill="#FFFFFF" stroke="#6A7071" stroke-width="2.8788" stroke-miterlimit="10" d="M299.185,287.266
	c0,1.59-1.289,2.878-2.878,2.878h-3.958c-1.591,0-2.879-1.289-2.879-2.878v-1.081c0-1.589,1.288-2.878,2.879-2.878h3.958
	c1.589,0,2.878,1.289,2.878,2.878V287.266z"/>
<path fill="none" stroke="#6A7071" stroke-width="2.8788" stroke-miterlimit="10" d="M169.582,267.114v33.646
	c0,0-0.065,4.309,0,5.698c0.181,4.019,1.919,8.156,9.597,8.156c7.674,0,55.176,0,55.176,0h40.783c0,0,4.799-0.479,4.799,4.319
	c0,4.797,0,25.431,0,25.431"/>
<path fill="none" stroke="#6A7071" stroke-width="2.8788" stroke-miterlimit="10" d="M47.231,267.114v48.04c0,0-0.063,4.308,0,5.698
	c0.182,4.018,1.92,8.156,9.596,8.156c7.677,0,55.177,0,55.177,0h140.102c0,0,4.799-0.479,4.799,4.318s0,11.038,0,11.038"/>
<path fill="none" stroke="#6A7071" stroke-width="2.8788" stroke-miterlimit="10" d="M250.858,26.354v75.388
	c0,0-0.063,4.306,0,5.698c0.182,4.018,1.919,8.156,9.597,8.156c7.675,0,26.387,0,26.387,0h9.117c0,0,4.799-0.48,4.799,4.318
	c0,4.796,0,77.247,0,77.247"/>
<path fill="none" stroke="#6A7071" stroke-width="2.8788" stroke-miterlimit="10" d="M261.342,47.225v66.752
	c0,0-0.064,4.308,0,5.699c0.181,4.017,1.92,8.155,9.597,8.155c7.675,0,26.389,0,26.389,0h9.114c0,0,4.797-0.479,4.797,4.318
	c0,4.796,0,65.012,0,65.012"/>
<path fill="none" stroke="#6A7071" stroke-width="2.8788" stroke-miterlimit="10" d="M318.006,55.678v27.889
	c0,0,0.064,4.308,0,5.699c-0.181,4.018-1.922,8.154-9.596,8.154c-7.676,0-19.192,0-19.192,0h-9.114c0,0-4.798-0.477-4.798,4.32
	c0,5.211,0,2.798,0,95.421"/>
<path fill="none" stroke="#6A7071" stroke-width="2.8788" stroke-miterlimit="10" d="M336.717,42.187v85.464
	c0,0,0.063,4.307,0,5.698c-0.181,4.018-1.919,8.155-9.597,8.155c-7.676,0-26.387,0-26.387,0h-9.117c0,0-4.799-0.481-4.799,4.318
	c0,4.796,0,51.337,0,51.337"/>
<path fill="none" stroke="#6A7071" stroke-width="2.8788" stroke-miterlimit="10" d="M582.416,37.867v63.875
	c0,0,0.064,4.306,0,5.698c-0.181,4.018-1.918,8.156-9.596,8.156c-7.676,0-26.388,0-26.388,0h-9.118c0,0-4.798-0.48-4.798,4.318
	c0,4.796,0,77.247,0,77.247"/>
<path fill="none" stroke="#6A7071" stroke-width="2.8788" stroke-miterlimit="10" d="M571.936,47.225v66.752
	c0,0,0.062,4.308,0,5.699c-0.183,4.017-1.921,8.155-9.598,8.155c-7.675,0-26.386,0-26.386,0h-9.119c0,0-4.799-0.479-4.799,4.318
	c0,4.796,0,65.012,0,65.012"/>
<path fill="none" stroke="#6A7071" stroke-width="2.8788" stroke-miterlimit="10" d="M515.269,55.678v27.889
	c0,0-0.063,4.308,0,5.699c0.181,4.018,1.92,8.154,9.598,8.154c7.675,0,19.192,0,19.192,0h9.114c0,0,4.801-0.477,4.801,4.32
	c0,5.211,0,2.798,0,95.421"/>
<path fill="none" stroke="#6A7071" stroke-width="2.8788" stroke-miterlimit="10" d="M496.558,42.187v85.464
	c0,0-0.064,4.307,0,5.698c0.181,4.018,1.92,8.155,9.596,8.155c7.676,0,26.389,0,26.389,0h9.115c0,0,4.8-0.481,4.8,4.318
	c0,4.796,0,51.337,0,51.337"/>
<path fill="none" stroke="#6A7071" stroke-width="2.8788" stroke-miterlimit="10" d="M90.791,37.867v63.875c0,0,0.063,4.306,0,5.698
	c-0.184,4.018-1.92,8.156-9.597,8.156c-7.676,0-26.388,0-26.388,0h-9.115c0,0-4.801-0.48-4.801,4.318c0,4.796,0,77.247,0,77.247"/>
<path fill="none" stroke="#6A7071" stroke-width="2.8788" stroke-miterlimit="10" d="M80.308,47.225v66.752c0,0,0.063,4.308,0,5.699
	c-0.181,4.017-1.919,8.155-9.598,8.155c-7.673,0-26.388,0-26.388,0h-9.115c0,0-4.798-0.479-4.798,4.318c0,4.796,0,65.012,0,65.012"
	/>
<path fill="none" stroke="#6A7071" stroke-width="2.8788" stroke-miterlimit="10" d="M23.644,55.678v27.889c0,0-0.064,4.308,0,5.699
	c0.182,4.018,1.918,8.154,9.594,8.154c7.678,0,19.193,0,19.193,0h9.116c0,0,4.797-0.477,4.797,4.32c0,5.211,0,2.798,0,95.421"/>
<path fill="none" stroke="#6A7071" stroke-width="2.8788" stroke-miterlimit="10" d="M30.437,21v107.37c0,0-0.067,4.308,0,5.699
	c0.181,4.018,1.92,8.155,9.594,8.155c7.679,0,26.39,0,26.39,0h9.116c0,0,4.8-0.48,4.8,4.321c0,4.794,0,51.337,0,51.337"/>
<path fill="none" stroke="#6A7071" stroke-width="2.8788" stroke-miterlimit="10" d="M419.528,267.114v33.646
	c0,0,0.063,4.309,0,5.698c-0.183,4.019-1.92,8.156-9.597,8.156s-55.177,0-55.177,0h-40.782c0,0-4.801-0.479-4.801,4.319
	c0,4.797,0,25.431,0,25.431"/>
<path fill="none" stroke="#6A7071" stroke-width="2.8788" stroke-miterlimit="10" d="M541.876,267.114v48.04
	c0,0,0.064,4.308,0,5.698c-0.182,4.018-1.92,8.156-9.595,8.156c-7.677,0-55.177,0-55.177,0H337.003c0,0-4.8-0.479-4.8,4.318
	s0,11.038,0,11.038"/>
<path fill="#FFFFFF" stroke="#6A7071" stroke-width="2.8788" stroke-miterlimit="10" d="M424.415,287.266
	c0,1.59-1.29,2.878-2.88,2.878h-3.958c-1.592,0-2.878-1.289-2.878-2.878v-1.081c0-1.589,1.286-2.878,2.878-2.878h3.958
	c1.59,0,2.88,1.289,2.88,2.878V287.266z"/>
<path fill="#FFFFFF" stroke="#6A7071" stroke-width="2.8788" stroke-miterlimit="10" d="M546.763,287.266
	c0,1.59-1.289,2.878-2.878,2.878h-3.958c-1.591,0-2.88-1.289-2.88-2.878v-1.081c0-1.589,1.289-2.878,2.88-2.878h3.958
	c1.589,0,2.878,1.289,2.878,2.878V287.266z"/>
<path fill="#FFFFFF" stroke="#6A7071" stroke-width="2.8788" stroke-miterlimit="10" d="M52.409,287.266
	c0,1.59-1.287,2.878-2.878,2.878h-3.957c-1.592,0-2.879-1.289-2.879-2.878v-1.081c0-1.589,1.287-2.878,2.879-2.878h3.957
	c1.591,0,2.878,1.289,2.878,2.878V287.266z"/>
<path fill="#FFFFFF" stroke="#6A7071" stroke-width="2.8788" stroke-miterlimit="10" d="M174.412,287.266
	c0,1.59-1.291,2.878-2.88,2.878h-3.958c-1.589,0-2.878-1.289-2.878-2.878v-1.081c0-1.589,1.289-2.878,2.878-2.878h3.958
	c1.589,0,2.88,1.289,2.88,2.878V287.266z"/>
<line fill="none" stroke="#6A7071" stroke-width="2.8788" stroke-miterlimit="10" x1="16.574" y1="197.161" x2="16.574" y2="47.225"/>
<path fill="none" stroke="#6A7071" stroke-width="2.8788" stroke-miterlimit="10" d="M136.508,37.867v63.875
	c0,0-0.065,4.306,0,5.698c0.18,4.018,1.919,8.156,9.595,8.156c7.679,0,26.391,0,26.391,0h9.114c0,0,4.797-0.48,4.797,4.318
	c0,4.796,0,77.247,0,77.247"/>
<path fill="none" stroke="#6A7071" stroke-width="2.8788" stroke-miterlimit="10" d="M146.988,47.225v66.752
	c0,0-0.063,4.308,0,5.699c0.184,4.017,1.919,8.155,9.598,8.155c7.676,0,26.387,0,26.387,0h9.116c0,0,4.8-0.479,4.8,4.318
	c0,4.796,0,65.012,0,65.012"/>
<path fill="none" stroke="#6A7071" stroke-width="2.8788" stroke-miterlimit="10" d="M203.653,7.167v76.399c0,0,0.067,4.308,0,5.699
	c-0.18,4.018-1.916,8.154-9.595,8.154c-7.677,0-19.191,0-19.191,0h-9.116c0,0-4.799-0.477-4.799,4.32c0,5.211,0,2.798,0,95.421"/>
<path fill="none" stroke="#6A7071" stroke-width="2.8788" stroke-miterlimit="10" d="M192.543,29.952v98.418
	c0,0,0.065,4.308,0,5.699c-0.181,4.018-1.921,8.155-9.595,8.155c-7.678,0-27.832,0-27.832,0h-3.356c0,0-4.798-0.48-4.798,4.321
	c0,4.794,0,51.337,0,51.337"/>
<line fill="none" stroke="#6A7071" stroke-width="2.8788" stroke-miterlimit="10" x1="171.925" y1="197.161" x2="171.925" y2="47.225"/>
<path fill="none" stroke="#6A7071" stroke-width="2.8788" stroke-miterlimit="10" d="M431.946,37.867v63.875
	c0,0,0.063,4.306,0,5.698c-0.181,4.018-1.921,8.156-9.598,8.156c-7.675,0-9.114,0-9.114,0h-9.116c0,0-4.801-0.48-4.801,4.318
	c0,4.796,0,77.247,0,77.247"/>
<path fill="none" stroke="#6A7071" stroke-width="2.8788" stroke-miterlimit="10" d="M371.593,22.753v91.224
	c0,0-0.064,4.308,0,5.699c0.181,4.017,1.918,8.155,9.595,8.155s43.662,0,43.662,0h9.115c0,0,4.798-0.479,4.798,4.318
	c0,4.796,0,65.012,0,65.012"/>
<path fill="none" stroke="#6A7071" stroke-width="2.8788" stroke-miterlimit="10" d="M382.071,16.814v66.752
	c0,0-0.062,4.308,0,5.699c0.182,4.018,1.92,8.154,9.597,8.154c7.677,0,19.191,0,19.191,0h9.116c0,0,4.799-0.477,4.799,4.32
	c0,5.211,0,2.798,0,95.421"/>
<path fill="none" stroke="#6A7071" stroke-width="2.8788" stroke-miterlimit="10" d="M393.184,29.952v98.418
	c0,0-0.063,4.308,0,5.699c0.181,4.018,1.919,8.155,9.597,8.155c7.677,0,27.827,0,27.827,0h3.36c0,0,4.796-0.48,4.796,4.321
	c0,4.794,0,51.337,0,51.337"/>
<line fill="none" stroke="#6A7071" stroke-width="2.8788" stroke-miterlimit="10" x1="413.803" y1="197.161" x2="413.803" y2="47.225"/>
<g>
	<g>
		<path fill="#6A7071" d="M299.811,419.007c-1.545,0-3.057-0.264-4.496-0.786c-0.624-0.225-1.226-0.522-1.789-0.88
			c-0.556-0.355-1.077-0.774-1.55-1.247l-8.922-8.922c-1.527-1.528-1.527-4.013,0-5.54l0.301-0.301
			c0.74-0.741,1.724-1.147,2.77-1.147c1.046,0,2.03,0.406,2.771,1.147l1.955,1.956V384.89c0-2.159,1.757-3.917,3.917-3.917h0.342
			c2.159,0,3.918,1.757,3.918,3.917v8.407l9.843,5.483c2.55,1.419,4.135,4.114,4.135,7.033
			C313.005,413.087,307.087,419.007,299.811,419.007z M286.124,402.551c-0.414,0-0.803,0.162-1.096,0.454l-0.301,0.301
			c-0.603,0.604-0.603,1.587,0.001,2.191l8.92,8.922c0.353,0.352,0.741,0.665,1.152,0.927c0.413,0.264,0.859,0.483,1.323,0.649
			c1.18,0.428,2.419,0.646,3.688,0.646c5.971,0,10.826-4.856,10.826-10.827c0-2.06-1.118-3.964-2.918-4.965l-10.464-5.829
			c-0.437-0.237-0.677-0.723-0.601-1.215l0.003-0.02c0.001-0.007,0.002-0.012,0.003-0.018v-8.877c0-0.854-0.696-1.55-1.55-1.55
			h-0.342c-0.854,0-1.55,0.696-1.55,1.55v21.221c0,0.477-0.283,0.909-0.721,1.098l-0.027,0.012l-0.214,0.086h-0.233
			c-0.321,0-0.622-0.124-0.849-0.35l-3.951-3.953C286.929,402.713,286.539,402.551,286.124,402.551z"/>
	</g>
</g>
<path fill="#24AAED" d="M295.108,362.145c-11.034,0-20.011,8.978-20.011,20.011c0,6.822,3.43,12.856,8.657,16.47
	c0.639,0.444,1.513,0.327,2.012-0.27c0.002,0,0.004-0.002,0.006-0.004c0.167-0.202,0.242-0.467,0.202-0.727
	c-0.04-0.262-0.189-0.493-0.412-0.635c-4.867-3.144-8.097-8.619-8.097-14.834c0-9.727,7.916-17.644,17.644-17.644
	c9.73,0,17.644,7.917,17.644,17.644c0,5.042-2.123,9.595-5.524,12.813c-0.239,0.225-0.357,0.553-0.315,0.881
	c0.04,0.328,0.234,0.615,0.522,0.776l0.27,0.149c0.397,0.222,0.891,0.159,1.22-0.156c3.815-3.646,6.195-8.782,6.195-14.464
	C315.12,371.123,306.143,362.145,295.108,362.145z"/>
<path fill="#24AAED" d="M295.108,368.062c-7.771,0-14.091,6.323-14.091,14.093c0,5.229,2.859,9.801,7.097,12.232
	c0.321,0.185,0.717,0.183,1.035-0.002c0.321-0.185,0.518-0.526,0.518-0.895v-0.12c0-0.497-0.257-0.958-0.68-1.218
	c-3.359-2.064-5.604-5.774-5.604-9.997c0-6.464,5.261-11.726,11.726-11.726c6.466,0,11.727,5.262,11.727,11.726
	c0,3.98-1.994,7.504-5.034,9.625c-0.293,0.203-0.461,0.544-0.443,0.901c0.018,0.356,0.218,0.68,0.529,0.854l0.287,0.158
	c0.348,0.195,0.78,0.17,1.106-0.062c3.582-2.558,5.921-6.748,5.921-11.477C309.203,374.385,302.879,368.062,295.108,368.062z"/>
<path fill="#24AAED" d="M295.108,373.98c-4.509,0-8.174,3.667-8.174,8.175c0,1.128,0.229,2.202,0.643,3.179
	c0.201,0.476,0.71,0.745,1.217,0.641c0.508-0.102,0.873-0.547,0.873-1.065v-0.021c0-0.132,0.005-0.263,0.014-0.394
	c0.012-0.144-0.006-0.287-0.055-0.424c-0.21-0.6-0.324-1.245-0.324-1.917c0-3.202,2.604-5.809,5.807-5.809
	c3.203,0,5.809,2.607,5.809,5.809c0,0.917-0.213,1.785-0.594,2.558c-0.073,0.149-0.113,0.315-0.113,0.482v0.393
	c0,0.499,0.336,0.933,0.819,1.058c0.481,0.124,0.986-0.092,1.228-0.527c0.655-1.175,1.027-2.526,1.027-3.963
	C303.284,377.647,299.617,373.98,295.108,373.98z"/>
<g>
	<path fill="#6A7071" d="M27.226,235.608c0,0.58-0.101,1.12-0.3,1.619c-0.2,0.5-0.482,0.933-0.846,1.301
		c-0.363,0.369-0.801,0.658-1.313,0.867c-0.512,0.209-1.081,0.314-1.704,0.314c-0.623,0-1.192-0.104-1.706-0.314
		c-0.514-0.209-0.953-0.498-1.319-0.867c-0.365-0.368-0.648-0.802-0.847-1.301c-0.2-0.499-0.3-1.039-0.3-1.619s0.1-1.12,0.3-1.619
		c0.199-0.499,0.482-0.931,0.847-1.299c0.366-0.366,0.805-0.655,1.319-0.864s1.083-0.313,1.706-0.313
		c0.624,0,1.192,0.105,1.704,0.316c0.512,0.211,0.95,0.501,1.313,0.867c0.364,0.367,0.646,0.8,0.846,1.299
		C27.125,234.495,27.226,235.032,27.226,235.608z M25.321,235.608c0-0.396-0.052-0.752-0.154-1.07s-0.25-0.587-0.443-0.807
		c-0.193-0.221-0.429-0.389-0.708-0.506c-0.278-0.118-0.596-0.177-0.952-0.177c-0.359,0-0.68,0.059-0.96,0.177
		c-0.28,0.117-0.517,0.285-0.709,0.506c-0.194,0.22-0.341,0.489-0.444,0.807c-0.103,0.318-0.154,0.674-0.154,1.07
		c0,0.4,0.051,0.759,0.154,1.076c0.103,0.317,0.25,0.586,0.444,0.806c0.193,0.221,0.429,0.388,0.709,0.504
		c0.281,0.115,0.601,0.173,0.96,0.173c0.356,0,0.674-0.058,0.952-0.173c0.279-0.116,0.515-0.283,0.708-0.504
		c0.193-0.22,0.34-0.489,0.443-0.806S25.321,236.008,25.321,235.608z"/>
	<path fill="#6A7071" d="M29.962,231.611c0.054,0.008,0.104,0.021,0.148,0.042c0.044,0.02,0.086,0.048,0.126,0.085
		c0.041,0.037,0.085,0.086,0.138,0.148l3.809,4.817c-0.015-0.154-0.026-0.304-0.033-0.448c-0.008-0.145-0.011-0.281-0.011-0.411
		v-4.244h1.641v8.021h-0.969c-0.144,0-0.265-0.022-0.364-0.066c-0.099-0.044-0.194-0.124-0.286-0.242l-3.781-4.778
		c0.011,0.14,0.019,0.276,0.027,0.41c0.007,0.134,0.011,0.259,0.011,0.376v4.3h-1.64v-8.021h0.979
		C29.839,231.601,29.906,231.604,29.962,231.611z"/>
	<path fill="#6A7071" d="M42.925,231.601v1.431h-3.292v1.872h2.521v1.376h-2.521v1.911h3.292v1.431h-5.163v-8.021H42.925z"/>
	<path fill="#6A7071" d="M50.033,237.546c0.044,0,0.088,0.008,0.132,0.025c0.044,0.016,0.086,0.044,0.126,0.084l0.738,0.776
		c-0.322,0.422-0.728,0.741-1.214,0.956c-0.485,0.214-1.062,0.322-1.727,0.322c-0.609,0-1.154-0.104-1.637-0.311
		c-0.482-0.207-0.892-0.493-1.228-0.859c-0.335-0.364-0.593-0.797-0.772-1.298c-0.18-0.5-0.27-1.045-0.27-1.632
		c0-0.598,0.103-1.148,0.308-1.649c0.205-0.5,0.493-0.932,0.862-1.296c0.368-0.363,0.809-0.646,1.323-0.847
		c0.515-0.202,1.082-0.303,1.701-0.303c0.301,0,0.584,0.026,0.85,0.08c0.268,0.054,0.515,0.126,0.747,0.22
		c0.23,0.094,0.444,0.205,0.638,0.336c0.194,0.13,0.367,0.273,0.517,0.432l-0.627,0.842c-0.04,0.052-0.088,0.099-0.143,0.141
		c-0.055,0.042-0.132,0.064-0.231,0.064c-0.066,0-0.128-0.015-0.187-0.044c-0.06-0.029-0.122-0.066-0.188-0.108
		c-0.066-0.042-0.138-0.087-0.217-0.138c-0.079-0.049-0.173-0.095-0.28-0.138c-0.108-0.042-0.235-0.077-0.38-0.107
		c-0.145-0.029-0.315-0.044-0.509-0.044c-0.337,0-0.646,0.06-0.925,0.179c-0.278,0.119-0.518,0.29-0.718,0.512
		c-0.201,0.222-0.356,0.491-0.468,0.807c-0.111,0.315-0.168,0.67-0.168,1.063c0,0.411,0.057,0.776,0.168,1.095
		c0.112,0.32,0.265,0.589,0.458,0.807c0.192,0.219,0.417,0.384,0.674,0.499c0.256,0.113,0.532,0.17,0.825,0.17
		c0.169,0,0.324-0.008,0.462-0.025c0.14-0.016,0.269-0.045,0.389-0.085c0.119-0.04,0.233-0.092,0.341-0.157
		c0.107-0.064,0.217-0.144,0.327-0.239c0.044-0.037,0.092-0.067,0.143-0.091C49.924,237.558,49.977,237.546,50.033,237.546z"/>
	<path fill="#6A7071" d="M60.002,239.622h-1.443c-0.161,0-0.294-0.037-0.399-0.112c-0.104-0.075-0.177-0.172-0.218-0.29
		l-0.473-1.398h-3.05l-0.473,1.398c-0.037,0.103-0.108,0.196-0.215,0.278c-0.107,0.083-0.237,0.124-0.391,0.124h-1.454l3.106-8.021
		h1.904L60.002,239.622z M54.849,236.555h2.192l-0.738-2.196c-0.048-0.14-0.104-0.304-0.168-0.493
		c-0.064-0.189-0.127-0.394-0.19-0.613c-0.059,0.224-0.119,0.431-0.182,0.621c-0.063,0.191-0.121,0.356-0.175,0.496L54.849,236.555z
		"/>
	<path fill="#6A7071" d="M63.172,236.654v2.968h-1.859v-8.021h2.609c0.58,0,1.075,0.06,1.483,0.179
		c0.41,0.119,0.743,0.286,1.002,0.499c0.259,0.213,0.446,0.464,0.565,0.753c0.117,0.291,0.176,0.606,0.176,0.947
		c0,0.262-0.035,0.506-0.104,0.738c-0.07,0.23-0.174,0.445-0.311,0.641c-0.138,0.196-0.307,0.371-0.507,0.526
		c-0.2,0.154-0.43,0.28-0.69,0.379c0.125,0.062,0.24,0.14,0.349,0.231c0.108,0.092,0.203,0.203,0.283,0.336l1.707,2.791H66.19
		c-0.312,0-0.535-0.117-0.671-0.352l-1.332-2.33c-0.059-0.102-0.128-0.175-0.207-0.22c-0.079-0.043-0.191-0.066-0.333-0.066H63.172z
		 M63.172,235.372h0.75c0.252,0,0.469-0.032,0.646-0.096c0.178-0.065,0.324-0.154,0.438-0.268c0.113-0.114,0.196-0.247,0.247-0.399
		c0.052-0.153,0.078-0.317,0.078-0.493c0-0.352-0.115-0.627-0.344-0.825c-0.229-0.199-0.585-0.298-1.065-0.298h-0.75V235.372z"/>
	<path fill="#6A7071" d="M76.572,235.608c0,0.58-0.1,1.115-0.3,1.605c-0.2,0.489-0.481,0.914-0.845,1.271
		c-0.364,0.357-0.801,0.637-1.313,0.836c-0.512,0.2-1.08,0.3-1.703,0.3h-3.117v-8.021h3.117c0.623,0,1.191,0.101,1.703,0.303
		c0.512,0.202,0.949,0.481,1.313,0.837c0.363,0.356,0.645,0.779,0.845,1.269C76.472,234.499,76.572,235.032,76.572,235.608z
		 M74.667,235.608c0-0.396-0.052-0.753-0.154-1.073c-0.103-0.32-0.25-0.59-0.443-0.813c-0.193-0.222-0.429-0.392-0.708-0.511
		s-0.596-0.18-0.952-0.18h-1.245v5.16h1.245c0.355,0,0.673-0.06,0.952-0.179c0.278-0.12,0.514-0.29,0.708-0.512
		c0.192-0.222,0.34-0.493,0.443-0.812C74.616,236.368,74.667,236.008,74.667,235.608z"/>
</g>
<g>
	<path fill="#6A7071" d="M164.35,239.622h-1.443c-0.161,0-0.294-0.037-0.399-0.112c-0.104-0.075-0.177-0.172-0.218-0.29
		l-0.473-1.398h-3.05l-0.473,1.398c-0.037,0.103-0.108,0.196-0.215,0.278c-0.106,0.083-0.237,0.124-0.391,0.124h-1.454l3.106-8.021
		h1.904L164.35,239.622z M159.196,236.555h2.192l-0.739-2.196c-0.047-0.14-0.103-0.304-0.168-0.493
		c-0.063-0.189-0.127-0.394-0.189-0.613c-0.059,0.224-0.119,0.431-0.182,0.621c-0.063,0.191-0.121,0.356-0.176,0.496
		L159.196,236.555z"/>
	<path fill="#6A7071" d="M170.719,237.546c0.044,0,0.088,0.008,0.132,0.025c0.044,0.016,0.086,0.044,0.126,0.084l0.738,0.776
		c-0.323,0.422-0.728,0.741-1.214,0.956c-0.486,0.214-1.062,0.322-1.726,0.322c-0.609,0-1.155-0.104-1.637-0.311
		c-0.483-0.207-0.892-0.493-1.228-0.859c-0.336-0.364-0.594-0.797-0.773-1.298c-0.18-0.5-0.27-1.045-0.27-1.632
		c0-0.598,0.103-1.148,0.308-1.649c0.206-0.5,0.493-0.932,0.862-1.296c0.369-0.363,0.81-0.646,1.324-0.847
		c0.514-0.202,1.081-0.303,1.7-0.303c0.301,0,0.585,0.026,0.851,0.08c0.267,0.054,0.515,0.126,0.747,0.22
		c0.231,0.094,0.444,0.205,0.638,0.336c0.195,0.13,0.367,0.273,0.517,0.432l-0.627,0.842c-0.041,0.052-0.088,0.099-0.143,0.141
		c-0.055,0.042-0.132,0.064-0.232,0.064c-0.065,0-0.128-0.015-0.187-0.044c-0.058-0.029-0.122-0.066-0.188-0.108
		c-0.065-0.042-0.138-0.087-0.217-0.138c-0.079-0.049-0.173-0.095-0.28-0.138c-0.109-0.042-0.236-0.077-0.38-0.107
		c-0.145-0.029-0.314-0.044-0.509-0.044c-0.338,0-0.646,0.06-0.925,0.179c-0.279,0.119-0.519,0.29-0.718,0.512
		c-0.201,0.222-0.356,0.491-0.468,0.807c-0.112,0.315-0.168,0.67-0.168,1.063c0,0.411,0.057,0.776,0.168,1.095
		c0.112,0.32,0.265,0.589,0.457,0.807c0.193,0.219,0.417,0.384,0.674,0.499c0.256,0.113,0.532,0.17,0.825,0.17
		c0.169,0,0.323-0.008,0.462-0.025c0.14-0.016,0.269-0.045,0.389-0.085c0.119-0.04,0.232-0.092,0.342-0.157
		c0.107-0.064,0.216-0.144,0.328-0.239c0.043-0.037,0.091-0.067,0.143-0.091C170.61,237.558,170.663,237.546,170.719,237.546z"/>
	<path fill="#6A7071" d="M180.226,239.622h-1.872v-3.391h-3.259v3.391h-1.872v-8.021h1.872v3.353h3.259v-3.353h1.872V239.622z"/>
</g>
<g>
	<path fill="#6A7071" d="M278.569,231.601h1.564c0.161,0,0.296,0.037,0.404,0.11c0.108,0.074,0.179,0.17,0.212,0.292l1.101,4.184
		c0.036,0.136,0.073,0.28,0.11,0.435c0.036,0.154,0.064,0.316,0.082,0.484c0.038-0.172,0.078-0.334,0.122-0.487
		c0.043-0.152,0.086-0.296,0.127-0.432l1.299-4.184c0.032-0.103,0.104-0.196,0.212-0.278c0.108-0.083,0.24-0.124,0.393-0.124h0.55
		c0.162,0,0.295,0.036,0.4,0.107s0.177,0.17,0.217,0.294l1.288,4.184c0.041,0.128,0.083,0.266,0.127,0.41
		c0.044,0.146,0.082,0.3,0.116,0.465c0.029-0.162,0.059-0.316,0.091-0.462c0.031-0.146,0.063-0.285,0.096-0.413l1.102-4.184
		c0.03-0.107,0.099-0.199,0.208-0.281c0.11-0.08,0.243-0.121,0.396-0.121h1.464l-2.478,8.021h-1.684l-1.509-4.972
		c-0.024-0.077-0.051-0.161-0.079-0.252c-0.027-0.092-0.055-0.189-0.081-0.292c-0.025,0.103-0.051,0.2-0.08,0.292
		c-0.027,0.091-0.054,0.175-0.079,0.252l-1.531,4.972h-1.684L278.569,231.601z"/>
	<path fill="#6A7071" d="M293.666,239.622h-1.872v-8.021h1.872V239.622z"/>
	<path fill="#6A7071" d="M297.672,236.654v2.968h-1.86v-8.021h2.609c0.58,0,1.075,0.06,1.484,0.179
		c0.409,0.119,0.744,0.286,1.002,0.499c0.259,0.213,0.447,0.464,0.565,0.753c0.117,0.291,0.176,0.606,0.176,0.947
		c0,0.262-0.036,0.506-0.105,0.738c-0.07,0.23-0.174,0.445-0.311,0.641s-0.307,0.371-0.506,0.526c-0.2,0.154-0.431,0.28-0.69,0.379
		c0.124,0.062,0.24,0.14,0.349,0.231c0.109,0.092,0.204,0.203,0.284,0.336l1.707,2.791h-1.684c-0.312,0-0.536-0.117-0.671-0.352
		l-1.333-2.33c-0.059-0.102-0.128-0.175-0.206-0.22c-0.08-0.043-0.19-0.066-0.333-0.066H297.672z M297.672,235.372h0.749
		c0.253,0,0.469-0.032,0.647-0.096c0.178-0.065,0.323-0.154,0.438-0.268c0.113-0.114,0.196-0.247,0.248-0.399
		c0.051-0.153,0.077-0.317,0.077-0.493c0-0.352-0.115-0.627-0.345-0.825c-0.229-0.199-0.584-0.298-1.065-0.298h-0.749V235.372z"/>
	<path fill="#6A7071" d="M308.958,231.601v1.431h-3.292v1.872h2.521v1.376h-2.521v1.911h3.292v1.431h-5.164v-8.021H308.958z"/>
</g>
<g>
	<path fill="#6A7071" d="M393.906,239.622h-1.872v-8.021h1.872V239.622z"/>
	<path fill="#6A7071" d="M397.237,231.611c0.054,0.008,0.104,0.021,0.148,0.042c0.044,0.02,0.085,0.048,0.126,0.085
		c0.041,0.037,0.086,0.086,0.138,0.148l3.809,4.817c-0.015-0.154-0.025-0.304-0.032-0.448c-0.008-0.145-0.012-0.281-0.012-0.411
		v-4.244h1.641v8.021h-0.969c-0.144,0-0.264-0.022-0.364-0.066c-0.1-0.044-0.194-0.124-0.286-0.242l-3.782-4.778
		c0.011,0.14,0.02,0.276,0.028,0.41c0.007,0.134,0.011,0.259,0.011,0.376v4.3h-1.641v-8.021h0.979
		C397.113,231.601,397.181,231.604,397.237,231.611z"/>
	<path fill="#6A7071" d="M409.507,233.23c-0.054,0.088-0.112,0.155-0.173,0.198c-0.06,0.044-0.139,0.066-0.234,0.066
		c-0.084,0-0.174-0.027-0.272-0.08c-0.097-0.053-0.207-0.113-0.329-0.179c-0.123-0.066-0.264-0.126-0.422-0.179
		c-0.158-0.054-0.338-0.081-0.539-0.081c-0.349,0-0.609,0.074-0.779,0.223c-0.171,0.148-0.256,0.35-0.256,0.603
		c0,0.162,0.051,0.295,0.154,0.402c0.103,0.106,0.238,0.198,0.405,0.275c0.166,0.077,0.357,0.148,0.572,0.212
		c0.215,0.063,0.434,0.135,0.658,0.214c0.224,0.08,0.443,0.172,0.658,0.279c0.215,0.106,0.406,0.241,0.573,0.406
		c0.167,0.166,0.302,0.367,0.405,0.603c0.103,0.237,0.154,0.522,0.154,0.857c0,0.37-0.064,0.717-0.192,1.04
		c-0.129,0.323-0.315,0.604-0.56,0.846c-0.244,0.24-0.545,0.429-0.903,0.567s-0.764,0.206-1.219,0.206
		c-0.25,0-0.503-0.025-0.762-0.078c-0.26-0.05-0.509-0.123-0.752-0.216c-0.242-0.094-0.47-0.205-0.682-0.333
		c-0.213-0.128-0.399-0.271-0.556-0.429l0.55-0.871c0.04-0.066,0.097-0.119,0.171-0.159c0.073-0.041,0.151-0.061,0.236-0.061
		c0.109,0,0.221,0.034,0.333,0.105c0.111,0.069,0.239,0.146,0.379,0.23c0.142,0.085,0.304,0.161,0.488,0.231
		c0.182,0.069,0.4,0.104,0.648,0.104c0.338,0,0.601-0.074,0.789-0.223c0.187-0.148,0.28-0.385,0.28-0.708
		c0-0.188-0.052-0.339-0.154-0.458c-0.103-0.117-0.238-0.214-0.405-0.291c-0.167-0.078-0.357-0.145-0.57-0.203
		c-0.213-0.059-0.431-0.124-0.655-0.196c-0.224-0.072-0.441-0.16-0.655-0.265c-0.213-0.104-0.402-0.241-0.569-0.413
		c-0.167-0.171-0.302-0.383-0.405-0.638c-0.103-0.256-0.154-0.571-0.154-0.945c0-0.301,0.061-0.595,0.182-0.88
		c0.121-0.287,0.299-0.542,0.534-0.766c0.235-0.224,0.522-0.402,0.865-0.537c0.341-0.134,0.732-0.201,1.172-0.201
		c0.246,0,0.486,0.02,0.718,0.058c0.234,0.039,0.455,0.096,0.664,0.171s0.405,0.165,0.586,0.27c0.182,0.104,0.345,0.223,0.487,0.354
		L409.507,233.23z"/>
	<path fill="#6A7071" d="M417.488,231.601v1.476h-2.257v6.545h-1.86v-6.545h-2.257v-1.476H417.488z"/>
	<path fill="#6A7071" d="M425.504,239.622h-1.443c-0.161,0-0.294-0.037-0.398-0.112c-0.104-0.075-0.177-0.172-0.219-0.29
		l-0.473-1.398h-3.049l-0.473,1.398c-0.037,0.103-0.109,0.196-0.215,0.278c-0.106,0.083-0.236,0.124-0.391,0.124h-1.453l3.105-8.021
		h1.904L425.504,239.622z M420.352,236.555h2.191l-0.738-2.196c-0.048-0.14-0.104-0.304-0.168-0.493
		c-0.063-0.189-0.127-0.394-0.189-0.613c-0.059,0.224-0.12,0.431-0.182,0.621c-0.062,0.191-0.121,0.356-0.176,0.496L420.352,236.555
		z"/>
	<path fill="#6A7071" d="M428.675,236.94v2.682h-1.86v-8.021h2.83c0.565,0,1.051,0.067,1.456,0.202
		c0.406,0.134,0.74,0.318,1.002,0.553c0.263,0.235,0.457,0.513,0.582,0.831c0.124,0.32,0.187,0.665,0.187,1.036
		c0,0.4-0.065,0.768-0.192,1.101c-0.129,0.334-0.325,0.621-0.59,0.859c-0.263,0.239-0.599,0.426-1.004,0.56
		c-0.405,0.134-0.885,0.2-1.439,0.2H428.675z M428.675,235.537h0.969c0.484,0,0.833-0.115,1.046-0.347
		c0.212-0.23,0.318-0.554,0.318-0.968c0-0.184-0.027-0.351-0.082-0.501c-0.055-0.149-0.139-0.279-0.25-0.388
		c-0.113-0.107-0.253-0.192-0.424-0.25c-0.171-0.059-0.374-0.088-0.608-0.088h-0.969V235.537z"/>
	<path fill="#6A7071" d="M441.029,239.622h-1.442c-0.162,0-0.295-0.037-0.399-0.112c-0.104-0.075-0.177-0.172-0.218-0.29
		l-0.474-1.398h-3.049l-0.473,1.398c-0.037,0.103-0.109,0.196-0.215,0.278c-0.106,0.083-0.236,0.124-0.391,0.124h-1.453l3.105-8.021
		h1.904L441.029,239.622z M435.876,236.555h2.191l-0.737-2.196c-0.048-0.14-0.104-0.304-0.168-0.493
		c-0.063-0.189-0.127-0.394-0.19-0.613c-0.059,0.224-0.119,0.431-0.182,0.621c-0.062,0.191-0.121,0.356-0.176,0.496L435.876,236.555
		z"/>
	<path fill="#6A7071" d="M445.235,236.572v3.05h-1.861v-3.05l-2.907-4.971h1.641c0.162,0,0.289,0.038,0.385,0.113
		c0.096,0.076,0.172,0.171,0.231,0.289l1.135,2.334c0.091,0.188,0.176,0.36,0.253,0.519c0.077,0.157,0.145,0.313,0.203,0.467
		c0.055-0.157,0.122-0.314,0.198-0.473c0.078-0.158,0.16-0.329,0.248-0.513l1.123-2.334c0.022-0.047,0.053-0.095,0.091-0.143
		c0.039-0.048,0.083-0.091,0.132-0.129c0.05-0.038,0.107-0.07,0.171-0.093c0.064-0.024,0.135-0.036,0.212-0.036h1.651
		L445.235,236.572z"/>
</g>
<g>
	<g>
		<path fill="#6A7071" d="M534.408,232.287h-1.702v-7.292h1.702V232.287z"/>
		<path fill="#6A7071" d="M537.435,225.005c0.05,0.007,0.095,0.02,0.135,0.038s0.08,0.043,0.116,0.077
			c0.037,0.033,0.078,0.078,0.125,0.135l3.463,4.379c-0.013-0.14-0.023-0.276-0.029-0.408c-0.007-0.132-0.011-0.255-0.011-0.373
			v-3.858h1.492v7.292h-0.881c-0.13,0-0.24-0.02-0.33-0.06c-0.09-0.041-0.177-0.113-0.261-0.221l-3.438-4.344
			c0.011,0.127,0.019,0.25,0.025,0.374c0.007,0.121,0.01,0.235,0.01,0.342v3.909h-1.492v-7.292h0.892
			C537.324,224.995,537.386,224.999,537.435,225.005z"/>
		<path fill="#6A7071" d="M549.822,224.995v1.341h-2.052v5.951h-1.691v-5.951h-2.052v-1.341H549.822z"/>
		<path fill="#6A7071" d="M549.923,231.501c0-0.12,0.022-0.231,0.067-0.335c0.045-0.104,0.108-0.194,0.186-0.27
			c0.078-0.078,0.171-0.138,0.277-0.183c0.107-0.045,0.224-0.068,0.35-0.068c0.124,0,0.239,0.022,0.346,0.068
			c0.106,0.044,0.199,0.105,0.279,0.183c0.081,0.076,0.143,0.166,0.188,0.27c0.045,0.104,0.067,0.215,0.067,0.335
			s-0.022,0.232-0.067,0.338c-0.045,0.104-0.107,0.195-0.188,0.272c-0.08,0.076-0.173,0.137-0.279,0.18
			c-0.107,0.043-0.222,0.065-0.346,0.065c-0.126,0-0.243-0.022-0.35-0.065c-0.106-0.043-0.199-0.104-0.277-0.18
			c-0.078-0.077-0.141-0.167-0.186-0.272C549.945,231.733,549.923,231.621,549.923,231.501z"/>
		<path fill="#6A7071" d="M509.921,241.6v2.698h-1.692v-7.292h2.373c0.527,0,0.976,0.055,1.348,0.163
			c0.373,0.108,0.676,0.259,0.911,0.453c0.236,0.194,0.406,0.422,0.513,0.685c0.107,0.264,0.16,0.551,0.16,0.861
			c0,0.237-0.032,0.46-0.096,0.67s-0.157,0.405-0.283,0.583c-0.125,0.178-0.278,0.337-0.46,0.478s-0.391,0.256-0.628,0.346
			c0.113,0.057,0.22,0.127,0.318,0.21c0.098,0.083,0.184,0.185,0.257,0.305l1.551,2.538h-1.531c-0.284,0-0.488-0.107-0.61-0.321
			l-1.211-2.116c-0.054-0.094-0.117-0.161-0.188-0.2c-0.071-0.04-0.173-0.061-0.303-0.061H509.921z M509.921,240.434h0.681
			c0.23,0,0.426-0.028,0.588-0.086c0.162-0.06,0.294-0.14,0.398-0.244c0.104-0.103,0.177-0.224,0.225-0.362
			c0.047-0.138,0.071-0.288,0.071-0.448c0-0.32-0.105-0.571-0.313-0.751c-0.208-0.18-0.532-0.269-0.968-0.269h-0.681V240.434z"/>
		<path fill="#6A7071" d="M520.18,237.006v1.301h-2.992v1.702h2.292v1.251h-2.292v1.737h2.992v1.301h-4.694v-7.292H520.18z"/>
		<path fill="#6A7071" d="M525.663,241.359c0.062,0.137,0.122,0.278,0.178,0.421c0.057-0.147,0.117-0.29,0.18-0.429
			c0.063-0.138,0.128-0.273,0.195-0.403l1.872-3.687c0.033-0.063,0.068-0.113,0.103-0.148c0.035-0.034,0.073-0.06,0.117-0.077
			c0.043-0.017,0.093-0.025,0.147-0.025c0.055,0,0.119,0,0.192,0h1.292v7.287h-1.492v-4.194c0-0.203,0.01-0.424,0.031-0.66
			l-1.932,3.747c-0.061,0.118-0.142,0.206-0.243,0.266c-0.103,0.06-0.217,0.09-0.348,0.09h-0.23c-0.13,0-0.246-0.031-0.348-0.09
			c-0.102-0.061-0.183-0.148-0.243-0.266l-1.942-3.753c0.014,0.117,0.023,0.233,0.03,0.348c0.007,0.115,0.01,0.22,0.01,0.317v4.194
			h-1.491v-7.287h1.291c0.074,0,0.138,0,0.192,0c0.056,0,0.104,0.009,0.149,0.025c0.043,0.017,0.082,0.043,0.117,0.077
			c0.036,0.036,0.069,0.085,0.103,0.148l1.876,3.702C525.537,241.09,525.602,241.222,525.663,241.359z"/>
		<path fill="#6A7071" d="M533.594,244.298h-1.703v-7.292h1.703V244.298z"/>
		<path fill="#6A7071" d="M540.839,237.006v1.341h-2.052v5.951h-1.691v-5.951h-2.053v-1.341H540.839z"/>
		<path fill="#6A7071" d="M547.435,237.006v1.341h-2.052v5.951h-1.69v-5.951h-2.053v-1.341H547.435z"/>
		<path fill="#6A7071" d="M554.722,244.298h-1.311c-0.147,0-0.268-0.035-0.364-0.103c-0.095-0.068-0.16-0.155-0.197-0.263
			l-0.43-1.271h-2.773l-0.43,1.271c-0.033,0.094-0.099,0.178-0.195,0.253c-0.097,0.076-0.215,0.113-0.355,0.113h-1.321l2.823-7.292
			h1.731L554.722,244.298z M550.038,241.51h1.992l-0.671-1.997c-0.043-0.126-0.094-0.276-0.152-0.448
			c-0.058-0.171-0.115-0.357-0.172-0.558c-0.054,0.203-0.108,0.392-0.165,0.565c-0.057,0.173-0.111,0.324-0.16,0.451L550.038,241.51
			z"/>
		<path fill="#6A7071" d="M556.988,237.016c0.05,0.007,0.095,0.02,0.135,0.039c0.04,0.019,0.08,0.043,0.115,0.077
			c0.038,0.033,0.079,0.079,0.126,0.135l3.463,4.379c-0.013-0.14-0.023-0.276-0.029-0.408c-0.007-0.132-0.011-0.256-0.011-0.372
			v-3.859h1.492v7.292h-0.881c-0.13,0-0.24-0.02-0.331-0.06c-0.09-0.04-0.177-0.113-0.26-0.22l-3.438-4.344
			c0.01,0.127,0.019,0.251,0.025,0.374c0.006,0.121,0.009,0.235,0.009,0.342v3.909h-1.491v-7.292h0.891
			C556.877,237.006,556.938,237.01,556.988,237.016z"/>
		<path fill="#6A7071" d="M568.979,242.412c0.041,0,0.081,0.007,0.121,0.022c0.04,0.015,0.078,0.042,0.115,0.077l0.671,0.706
			c-0.294,0.384-0.662,0.673-1.104,0.868c-0.443,0.195-0.966,0.293-1.569,0.293c-0.554,0-1.051-0.094-1.49-0.283
			c-0.438-0.189-0.81-0.449-1.115-0.781c-0.306-0.333-0.541-0.726-0.704-1.181c-0.163-0.456-0.245-0.95-0.245-1.484
			c0-0.544,0.094-1.044,0.281-1.5c0.187-0.456,0.447-0.849,0.783-1.179c0.335-0.331,0.737-0.586,1.205-0.77
			c0.467-0.184,0.982-0.276,1.546-0.276c0.274,0,0.53,0.024,0.773,0.072c0.242,0.049,0.468,0.115,0.679,0.201
			c0.21,0.084,0.404,0.187,0.58,0.306c0.177,0.118,0.334,0.249,0.471,0.393l-0.57,0.766c-0.038,0.046-0.08,0.089-0.13,0.126
			c-0.05,0.04-0.121,0.058-0.21,0.058c-0.061,0-0.117-0.013-0.17-0.04c-0.054-0.027-0.11-0.059-0.17-0.097
			c-0.061-0.039-0.126-0.08-0.198-0.125c-0.072-0.046-0.157-0.087-0.255-0.125c-0.098-0.039-0.213-0.072-0.345-0.098
			c-0.132-0.027-0.286-0.04-0.462-0.04c-0.308,0-0.587,0.053-0.842,0.162c-0.252,0.108-0.471,0.264-0.653,0.465
			c-0.182,0.202-0.324,0.446-0.425,0.733c-0.101,0.288-0.152,0.608-0.152,0.967c0,0.374,0.051,0.705,0.152,0.995
			c0.102,0.29,0.24,0.535,0.416,0.733c0.175,0.2,0.379,0.35,0.613,0.453c0.234,0.104,0.484,0.156,0.751,0.156
			c0.153,0,0.293-0.008,0.42-0.023c0.126-0.015,0.244-0.041,0.353-0.078c0.109-0.036,0.212-0.084,0.311-0.143
			c0.098-0.058,0.197-0.131,0.297-0.217c0.041-0.034,0.084-0.061,0.13-0.083C568.881,242.422,568.93,242.412,568.979,242.412z"/>
		<path fill="#6A7071" d="M575.951,237.006v1.301h-2.993v1.702h2.292v1.251h-2.292v1.737h2.993v1.301h-4.694v-7.292H575.951z"/>
	</g>
</g>
</svg>
