<?xml version="1.0" encoding="utf-8"?>
<!-- Generator: Adobe Illustrator 15.0.0, SVG Export Plug-In . SVG Version: 6.00 Build 0)  -->
<!DOCTYPE svg PUBLIC "-//W3C//DTD SVG 1.1//EN" "http://www.w3.org/Graphics/SVG/1.1/DTD/svg11.dtd">
<svg version="1.1" id="Layer_1" xmlns="http://www.w3.org/2000/svg" xmlns:xlink="http://www.w3.org/1999/xlink" x="0px" y="0px"
	 width="589px" height="426px" viewBox="0 0 589 426" enable-background="new 0 0 589 426" xml:space="preserve">
<path fill="none" stroke="#6A7071" stroke-width="2.8788" stroke-miterlimit="10" d="M89.474,258.479c0,1.59-1.29,2.877-2.879,2.877
	H8.868c-1.592,0-2.879-1.287-2.879-2.877v-50.379c0-1.589,1.287-2.879,2.879-2.879h77.727c1.589,0,2.879,1.29,2.879,2.879V258.479z"
	/>
<path fill="none" stroke="#6A7071" stroke-width="2.8788" stroke-miterlimit="10" d="M211.975,258.479
	c0,1.59-1.289,2.877-2.878,2.877h-77.73c-1.587,0-2.878-1.287-2.878-2.877v-50.379c0-1.589,1.291-2.879,2.878-2.879h77.73
	c1.589,0,2.878,1.29,2.878,2.879V258.479L211.975,258.479z"/>
<path fill="none" stroke="#6A7071" stroke-width="2.8788" stroke-miterlimit="10" d="M336.507,258.479
	c0,1.59-1.291,2.877-2.88,2.877H255.9c-1.59,0-2.878-1.287-2.878-2.877v-50.379c0-1.589,1.288-2.879,2.878-2.879h77.727
	c1.589,0,2.88,1.29,2.88,2.879V258.479z"/>
<path fill="none" stroke="#6A7071" stroke-width="2.8788" stroke-miterlimit="10" d="M461.83,258.479c0,1.59-1.29,2.877-2.878,2.877
	h-77.729c-1.587,0-2.877-1.287-2.877-2.877v-50.379c0-1.589,1.291-2.879,2.877-2.879h77.729c1.588,0,2.878,1.29,2.878,2.879V258.479
	z"/>
<path fill="none" stroke="#6A7071" stroke-width="2.8788" stroke-miterlimit="10" d="M583.833,258.479
	c0,1.59-1.292,2.877-2.879,2.877h-77.729c-1.592,0-2.878-1.287-2.878-2.877v-50.379c0-1.589,1.286-2.879,2.878-2.879h77.729
	c1.587,0,2.879,1.29,2.879,2.879V258.479z"/>
<line fill="none" stroke="#6A7071" stroke-width="2.8788" stroke-miterlimit="10" x1="294.328" y1="267.114" x2="294.328" y2="344.842"/>
<path fill="#FFFFFF" stroke="#6A7071" stroke-width="2.8788" stroke-miterlimit="10" d="M299.186,287.266
	c0,1.59-1.289,2.879-2.879,2.879h-3.958c-1.591,0-2.879-1.289-2.879-2.879v-1.08c0-1.59,1.288-2.879,2.879-2.879h3.958
	c1.59,0,2.879,1.289,2.879,2.879V287.266z"/>
<path fill="none" stroke="#6A7071" stroke-width="2.8788" stroke-miterlimit="10" d="M169.582,267.114v33.646
	c0,0-0.065,4.309,0,5.698c0.181,4.019,1.919,8.156,9.597,8.156c7.674,0,55.176,0,55.176,0h40.783c0,0,4.799-0.479,4.799,4.319
	c0,4.797,0,25.431,0,25.431"/>
<path fill="none" stroke="#6A7071" stroke-width="2.8788" stroke-miterlimit="10" d="M47.231,267.114v48.04c0,0-0.063,4.308,0,5.697
	c0.182,4.019,1.92,8.156,9.596,8.156c7.677,0,55.177,0,55.177,0h140.102c0,0,4.799-0.479,4.799,4.318s0,11.038,0,11.038"/>
<path fill="none" stroke="#6A7071" stroke-width="2.8788" stroke-miterlimit="10" d="M250.858,26.354v75.388
	c0,0-0.063,4.306,0,5.698c0.182,4.018,1.919,8.156,9.597,8.156c7.675,0,26.387,0,26.387,0h9.117c0,0,4.799-0.48,4.799,4.318
	c0,4.796,0,77.247,0,77.247"/>
<path fill="none" stroke="#6A7071" stroke-width="2.8788" stroke-miterlimit="10" d="M261.342,47.225v66.752
	c0,0-0.064,4.308,0,5.699c0.181,4.017,1.92,8.155,9.597,8.155c7.675,0,26.389,0,26.389,0h9.114c0,0,4.797-0.479,4.797,4.318
	c0,4.796,0,65.012,0,65.012"/>
<path fill="none" stroke="#6A7071" stroke-width="2.8788" stroke-miterlimit="10" d="M318.006,55.678v27.889
	c0,0,0.064,4.308,0,5.699c-0.181,4.018-1.922,8.154-9.596,8.154c-7.676,0-19.192,0-19.192,0h-9.114c0,0-4.798-0.477-4.798,4.32
	c0,5.211,0,2.798,0,95.421"/>
<path fill="none" stroke="#6A7071" stroke-width="2.8788" stroke-miterlimit="10" d="M336.717,42.187v85.464
	c0,0,0.063,4.307,0,5.698c-0.181,4.018-1.919,8.155-9.597,8.155c-7.676,0-26.388,0-26.388,0h-9.116c0,0-4.799-0.481-4.799,4.318
	c0,4.796,0,51.337,0,51.337"/>
<path fill="none" stroke="#6A7071" stroke-width="2.8788" stroke-miterlimit="10" d="M582.416,37.867v63.875
	c0,0,0.064,4.306,0,5.698c-0.181,4.018-1.918,8.156-9.596,8.156c-7.677,0-26.389,0-26.389,0h-9.117c0,0-4.799-0.48-4.799,4.318
	c0,4.796,0,77.247,0,77.247"/>
<path fill="none" stroke="#6A7071" stroke-width="2.8788" stroke-miterlimit="10" d="M571.936,47.225v66.752
	c0,0,0.063,4.308,0,5.699c-0.183,4.017-1.921,8.155-9.598,8.155c-7.675,0-26.386,0-26.386,0h-9.119c0,0-4.799-0.479-4.799,4.318
	c0,4.796,0,65.012,0,65.012"/>
<path fill="none" stroke="#6A7071" stroke-width="2.8788" stroke-miterlimit="10" d="M515.269,55.678v27.889
	c0,0-0.063,4.308,0,5.699c0.182,4.018,1.921,8.154,9.599,8.154c7.675,0,19.191,0,19.191,0h9.114c0,0,4.801-0.477,4.801,4.32
	c0,5.211,0,2.798,0,95.421"/>
<path fill="none" stroke="#6A7071" stroke-width="2.8788" stroke-miterlimit="10" d="M496.558,42.187v85.464
	c0,0-0.063,4.307,0,5.698c0.182,4.018,1.921,8.155,9.597,8.155s26.389,0,26.389,0h9.115c0,0,4.8-0.481,4.8,4.318
	c0,4.796,0,51.337,0,51.337"/>
<path fill="none" stroke="#6A7071" stroke-width="2.8788" stroke-miterlimit="10" d="M90.791,37.867v63.875c0,0,0.063,4.306,0,5.698
	c-0.184,4.018-1.92,8.156-9.597,8.156c-7.676,0-26.388,0-26.388,0h-9.115c0,0-4.801-0.48-4.801,4.318c0,4.796,0,77.247,0,77.247"/>
<path fill="none" stroke="#6A7071" stroke-width="2.8788" stroke-miterlimit="10" d="M80.308,47.225v66.752c0,0,0.063,4.308,0,5.699
	c-0.181,4.017-1.919,8.155-9.598,8.155c-7.673,0-26.388,0-26.388,0h-9.115c0,0-4.798-0.479-4.798,4.318c0,4.796,0,65.012,0,65.012"
	/>
<path fill="none" stroke="#6A7071" stroke-width="2.8788" stroke-miterlimit="10" d="M23.644,55.678v27.889c0,0-0.064,4.308,0,5.699
	c0.182,4.018,1.918,8.154,9.594,8.154c7.678,0,19.193,0,19.193,0h9.116c0,0,4.797-0.477,4.797,4.32c0,5.211,0,2.798,0,95.421"/>
<path fill="none" stroke="#6A7071" stroke-width="2.8788" stroke-miterlimit="10" d="M30.437,21v107.37c0,0-0.067,4.308,0,5.699
	c0.181,4.018,1.92,8.155,9.594,8.155c7.679,0,26.39,0,26.39,0h9.116c0,0,4.8-0.48,4.8,4.321c0,4.794,0,51.337,0,51.337"/>
<path fill="none" stroke="#6A7071" stroke-width="2.8788" stroke-miterlimit="10" d="M419.528,267.114v33.646
	c0,0,0.063,4.309,0,5.698c-0.184,4.019-1.92,8.156-9.598,8.156c-7.677,0-55.177,0-55.177,0h-40.782c0,0-4.801-0.479-4.801,4.319
	c0,4.797,0,25.431,0,25.431"/>
<path fill="none" stroke="#6A7071" stroke-width="2.8788" stroke-miterlimit="10" d="M541.876,267.114v48.04
	c0,0,0.064,4.308,0,5.697c-0.182,4.019-1.92,8.156-9.595,8.156c-7.678,0-55.178,0-55.178,0H337.003c0,0-4.8-0.479-4.8,4.318
	s0,11.038,0,11.038"/>
<path fill="#FFFFFF" stroke="#6A7071" stroke-width="2.8788" stroke-miterlimit="10" d="M424.415,287.266
	c0,1.59-1.29,2.879-2.88,2.879h-3.958c-1.592,0-2.878-1.289-2.878-2.879v-1.08c0-1.59,1.286-2.879,2.878-2.879h3.958
	c1.59,0,2.88,1.289,2.88,2.879V287.266z"/>
<path fill="#FFFFFF" stroke="#6A7071" stroke-width="2.8788" stroke-miterlimit="10" d="M546.763,287.266
	c0,1.59-1.289,2.879-2.878,2.879h-3.958c-1.591,0-2.88-1.289-2.88-2.879v-1.08c0-1.59,1.289-2.879,2.88-2.879h3.958
	c1.589,0,2.878,1.289,2.878,2.879V287.266z"/>
<path fill="#FFFFFF" stroke="#6A7071" stroke-width="2.8788" stroke-miterlimit="10" d="M52.409,287.266
	c0,1.59-1.287,2.879-2.878,2.879h-3.957c-1.592,0-2.879-1.289-2.879-2.879v-1.08c0-1.59,1.287-2.879,2.879-2.879h3.957
	c1.591,0,2.878,1.289,2.878,2.879V287.266z"/>
<path fill="#FFFFFF" stroke="#6A7071" stroke-width="2.8788" stroke-miterlimit="10" d="M174.412,287.266
	c0,1.59-1.291,2.879-2.88,2.879h-3.958c-1.589,0-2.878-1.289-2.878-2.879v-1.08c0-1.59,1.289-2.879,2.878-2.879h3.958
	c1.589,0,2.88,1.289,2.88,2.879V287.266z"/>
<line fill="none" stroke="#6A7071" stroke-width="2.8788" stroke-miterlimit="10" x1="16.574" y1="197.161" x2="16.574" y2="47.225"/>
<path fill="none" stroke="#6A7071" stroke-width="2.8788" stroke-miterlimit="10" d="M136.508,37.867v63.875
	c0,0-0.065,4.306,0,5.698c0.18,4.018,1.919,8.156,9.595,8.156c7.679,0,26.391,0,26.391,0h9.114c0,0,4.797-0.48,4.797,4.318
	c0,4.796,0,77.247,0,77.247"/>
<path fill="none" stroke="#6A7071" stroke-width="2.8788" stroke-miterlimit="10" d="M146.988,47.225v66.752
	c0,0-0.063,4.308,0,5.699c0.184,4.017,1.919,8.155,9.598,8.155c7.676,0,26.387,0,26.387,0h9.116c0,0,4.8-0.479,4.8,4.318
	c0,4.796,0,65.012,0,65.012"/>
<path fill="none" stroke="#6A7071" stroke-width="2.8788" stroke-miterlimit="10" d="M203.653,7.167v76.399c0,0,0.067,4.308,0,5.699
	c-0.18,4.018-1.916,8.154-9.595,8.154c-7.677,0-19.191,0-19.191,0h-9.116c0,0-4.799-0.477-4.799,4.32c0,5.211,0,2.798,0,95.421"/>
<path fill="none" stroke="#6A7071" stroke-width="2.8788" stroke-miterlimit="10" d="M192.543,29.952v98.418
	c0,0,0.065,4.308,0,5.699c-0.181,4.018-1.921,8.155-9.595,8.155c-7.678,0-27.832,0-27.832,0h-3.356c0,0-4.798-0.48-4.798,4.321
	c0,4.794,0,51.337,0,51.337"/>
<line fill="none" stroke="#6A7071" stroke-width="2.8788" stroke-miterlimit="10" x1="171.925" y1="197.161" x2="171.925" y2="47.225"/>
<path fill="none" stroke="#6A7071" stroke-width="2.8788" stroke-miterlimit="10" d="M431.946,37.867v63.875
	c0,0,0.063,4.306,0,5.698c-0.182,4.018-1.921,8.156-9.599,8.156c-7.675,0-9.113,0-9.113,0h-9.116c0,0-4.801-0.48-4.801,4.318
	c0,4.796,0,77.247,0,77.247"/>
<path fill="none" stroke="#6A7071" stroke-width="2.8788" stroke-miterlimit="10" d="M371.593,22.753v91.224
	c0,0-0.063,4.308,0,5.699c0.182,4.017,1.918,8.155,9.595,8.155c7.678,0,43.662,0,43.662,0h9.115c0,0,4.798-0.479,4.798,4.318
	c0,4.796,0,65.012,0,65.012"/>
<path fill="none" stroke="#6A7071" stroke-width="2.8788" stroke-miterlimit="10" d="M382.071,16.814v66.752
	c0,0-0.063,4.308,0,5.699c0.182,4.018,1.92,8.154,9.597,8.154s19.191,0,19.191,0h9.115c0,0,4.8-0.477,4.8,4.32
	c0,5.211,0,2.798,0,95.421"/>
<path fill="none" stroke="#6A7071" stroke-width="2.8788" stroke-miterlimit="10" d="M393.184,29.952v98.418
	c0,0-0.063,4.308,0,5.699c0.182,4.018,1.919,8.155,9.598,8.155c7.677,0,27.827,0,27.827,0h3.359c0,0,4.796-0.48,4.796,4.321
	c0,4.794,0,51.337,0,51.337"/>
<line fill="none" stroke="#6A7071" stroke-width="2.8788" stroke-miterlimit="10" x1="413.803" y1="197.161" x2="413.803" y2="47.225"/>
<g>
	<g>
		<path fill="#6A7071" d="M299.811,419.007c-1.545,0-3.057-0.264-4.496-0.786c-0.624-0.225-1.226-0.521-1.789-0.88
			c-0.556-0.354-1.077-0.773-1.55-1.247l-8.922-8.922c-1.527-1.528-1.527-4.013,0-5.54l0.301-0.301
			c0.74-0.741,1.724-1.147,2.77-1.147s2.03,0.406,2.771,1.147l1.955,1.956v-18.396c0-2.16,1.757-3.918,3.917-3.918h0.341
			c2.16,0,3.918,1.758,3.918,3.918v8.406l9.844,5.483c2.55,1.419,4.135,4.114,4.135,7.033
			C313.005,413.087,307.087,419.007,299.811,419.007z M286.124,402.551c-0.414,0-0.803,0.162-1.096,0.454l-0.301,0.301
			c-0.603,0.604-0.603,1.587,0.001,2.191l8.92,8.922c0.353,0.353,0.741,0.665,1.152,0.927c0.413,0.265,0.859,0.483,1.323,0.649
			c1.18,0.428,2.419,0.646,3.688,0.646c5.972,0,10.826-4.855,10.826-10.826c0-2.061-1.118-3.965-2.918-4.966l-10.464-5.829
			c-0.437-0.236-0.677-0.723-0.601-1.215l0.003-0.02c0.001-0.008,0.002-0.012,0.003-0.018v-8.877c0-0.854-0.696-1.551-1.551-1.551
			h-0.341c-0.854,0-1.55,0.696-1.55,1.551v21.221c0,0.477-0.283,0.908-0.721,1.098l-0.027,0.012l-0.214,0.086h-0.233
			c-0.321,0-0.622-0.124-0.849-0.35l-3.951-3.953C286.929,402.713,286.539,402.551,286.124,402.551z"/>
	</g>
</g>
<path fill="#24AAED" d="M295.107,362.145c-11.033,0-20.01,8.979-20.01,20.012c0,6.822,3.43,12.855,8.657,16.47
	c0.639,0.444,1.513,0.327,2.012-0.27c0.002,0,0.004-0.003,0.006-0.005c0.167-0.201,0.242-0.467,0.202-0.727
	c-0.04-0.262-0.189-0.493-0.412-0.635c-4.867-3.145-8.097-8.619-8.097-14.834c0-9.727,7.916-17.645,17.645-17.645
	c9.729,0,17.644,7.918,17.644,17.645c0,5.042-2.123,9.595-5.523,12.813c-0.239,0.225-0.357,0.553-0.315,0.881
	c0.04,0.328,0.234,0.615,0.522,0.776l0.27,0.149c0.397,0.222,0.891,0.158,1.22-0.156c3.815-3.646,6.195-8.782,6.195-14.465
	C315.12,371.123,306.143,362.145,295.107,362.145z"/>
<path fill="#24AAED" d="M295.107,368.063c-7.771,0-14.09,6.322-14.09,14.092c0,5.229,2.859,9.802,7.097,12.232
	c0.321,0.186,0.717,0.184,1.035-0.002c0.321-0.185,0.518-0.525,0.518-0.895v-0.12c0-0.497-0.257-0.958-0.68-1.218
	c-3.359-2.064-5.604-5.774-5.604-9.998c0-6.463,5.261-11.725,11.727-11.725c6.466,0,11.727,5.262,11.727,11.725
	c0,3.98-1.994,7.505-5.033,9.625c-0.294,0.203-0.462,0.545-0.443,0.902c0.018,0.355,0.218,0.68,0.529,0.854l0.286,0.158
	c0.349,0.195,0.78,0.17,1.106-0.063c3.582-2.559,5.921-6.748,5.921-11.477C309.203,374.385,302.879,368.063,295.107,368.063z"/>
<path fill="#24AAED" d="M295.107,373.98c-4.508,0-8.173,3.666-8.173,8.174c0,1.129,0.229,2.203,0.643,3.18
	c0.201,0.477,0.71,0.745,1.217,0.641c0.508-0.102,0.873-0.547,0.873-1.064v-0.021c0-0.132,0.005-0.263,0.014-0.394
	c0.012-0.144-0.006-0.287-0.055-0.425c-0.21-0.6-0.324-1.244-0.324-1.916c0-3.202,2.604-5.81,5.808-5.81s5.809,2.607,5.809,5.81
	c0,0.916-0.213,1.785-0.594,2.558c-0.073,0.149-0.113,0.315-0.113,0.481v0.394c0,0.499,0.336,0.933,0.818,1.058
	c0.481,0.125,0.986-0.092,1.229-0.526c0.655-1.175,1.027-2.526,1.027-3.964C303.284,377.646,299.617,373.98,295.107,373.98z"/>
<g>
	<path fill="#6A7071" d="M27.226,235.607c0,0.58-0.101,1.121-0.3,1.619c-0.2,0.5-0.482,0.934-0.846,1.301
		c-0.363,0.369-0.801,0.658-1.313,0.867c-0.512,0.209-1.081,0.314-1.704,0.314s-1.192-0.104-1.706-0.314
		c-0.514-0.209-0.953-0.498-1.319-0.867c-0.365-0.367-0.648-0.801-0.847-1.301c-0.2-0.498-0.3-1.039-0.3-1.619s0.1-1.119,0.3-1.618
		c0.199-0.499,0.482-0.931,0.847-1.3c0.366-0.365,0.805-0.654,1.319-0.863s1.083-0.313,1.706-0.313c0.624,0,1.192,0.104,1.704,0.315
		c0.512,0.211,0.95,0.501,1.313,0.866c0.364,0.367,0.646,0.801,0.846,1.3C27.125,234.495,27.226,235.032,27.226,235.607z
		 M25.321,235.607c0-0.396-0.052-0.752-0.154-1.069c-0.102-0.318-0.25-0.587-0.443-0.808c-0.193-0.221-0.429-0.389-0.708-0.506
		c-0.278-0.117-0.596-0.177-0.952-0.177c-0.359,0-0.68,0.06-0.96,0.177s-0.517,0.285-0.709,0.506
		c-0.194,0.221-0.341,0.489-0.444,0.808c-0.103,0.317-0.154,0.674-0.154,1.069c0,0.4,0.051,0.76,0.154,1.076
		c0.103,0.317,0.25,0.586,0.444,0.807c0.193,0.221,0.429,0.388,0.709,0.504c0.281,0.115,0.601,0.173,0.96,0.173
		c0.356,0,0.674-0.058,0.952-0.173c0.279-0.116,0.515-0.283,0.708-0.504c0.193-0.221,0.34-0.489,0.443-0.807
		C25.27,236.367,25.321,236.008,25.321,235.607z"/>
	<path fill="#6A7071" d="M29.962,231.611c0.054,0.008,0.104,0.021,0.148,0.041s0.086,0.049,0.126,0.086
		c0.041,0.037,0.085,0.086,0.138,0.147l3.809,4.817c-0.015-0.154-0.026-0.305-0.033-0.448c-0.008-0.146-0.011-0.28-0.011-0.411
		V231.6h1.641v8.021h-0.969c-0.144,0-0.265-0.021-0.364-0.066c-0.099-0.044-0.194-0.123-0.286-0.242l-3.781-4.777
		c0.011,0.14,0.019,0.275,0.027,0.41c0.007,0.134,0.011,0.259,0.011,0.376v4.3h-1.64V231.6h0.979
		C29.839,231.602,29.906,231.604,29.962,231.611z"/>
	<path fill="#6A7071" d="M42.925,231.602v1.431h-3.292v1.872h2.521v1.376h-2.521v1.911h3.292v1.431h-5.163v-8.021H42.925z"/>
	<path fill="#6A7071" d="M50.033,237.546c0.044,0,0.088,0.009,0.132,0.024c0.044,0.017,0.086,0.045,0.126,0.085l0.738,0.776
		c-0.322,0.422-0.728,0.74-1.214,0.955c-0.485,0.215-1.062,0.322-1.727,0.322c-0.609,0-1.154-0.104-1.637-0.311
		c-0.482-0.207-0.892-0.493-1.228-0.859c-0.335-0.364-0.593-0.797-0.772-1.298c-0.18-0.5-0.27-1.046-0.27-1.632
		c0-0.599,0.103-1.148,0.308-1.649c0.205-0.5,0.493-0.933,0.862-1.296c0.368-0.363,0.809-0.646,1.323-0.848
		c0.515-0.201,1.082-0.303,1.701-0.303c0.301,0,0.584,0.026,0.85,0.08c0.268,0.055,0.515,0.126,0.747,0.221
		c0.23,0.094,0.444,0.205,0.638,0.336c0.194,0.13,0.367,0.272,0.517,0.432l-0.627,0.842c-0.04,0.053-0.088,0.1-0.143,0.141
		c-0.055,0.043-0.132,0.064-0.231,0.064c-0.066,0-0.128-0.015-0.187-0.044c-0.06-0.028-0.122-0.065-0.188-0.108
		c-0.066-0.041-0.138-0.086-0.217-0.138c-0.079-0.049-0.173-0.095-0.28-0.138c-0.108-0.042-0.235-0.077-0.38-0.107
		c-0.145-0.029-0.315-0.044-0.509-0.044c-0.337,0-0.646,0.06-0.925,0.179c-0.278,0.119-0.518,0.291-0.718,0.513
		c-0.201,0.222-0.356,0.491-0.468,0.807c-0.111,0.315-0.168,0.67-0.168,1.063c0,0.41,0.057,0.775,0.168,1.095
		c0.112,0.319,0.265,0.589,0.458,0.808c0.192,0.219,0.417,0.383,0.674,0.498c0.256,0.113,0.532,0.17,0.825,0.17
		c0.169,0,0.324-0.008,0.462-0.024c0.14-0.017,0.269-0.046,0.389-0.085c0.119-0.04,0.233-0.092,0.341-0.157
		c0.107-0.063,0.217-0.144,0.327-0.239c0.044-0.037,0.092-0.066,0.143-0.091C49.924,237.559,49.977,237.546,50.033,237.546z"/>
	<path fill="#6A7071" d="M60.002,239.622h-1.443c-0.161,0-0.294-0.037-0.399-0.112c-0.104-0.074-0.177-0.172-0.218-0.29
		l-0.473-1.397h-3.05l-0.473,1.397c-0.037,0.104-0.108,0.196-0.215,0.278c-0.107,0.083-0.237,0.124-0.391,0.124h-1.454l3.106-8.021
		h1.904L60.002,239.622z M54.849,236.555h2.192l-0.738-2.195c-0.048-0.141-0.104-0.305-0.168-0.493
		c-0.064-0.189-0.127-0.394-0.19-0.613c-0.059,0.224-0.119,0.431-0.182,0.621s-0.121,0.356-0.175,0.496L54.849,236.555z"/>
	<path fill="#6A7071" d="M63.172,236.654v2.968h-1.859v-8.021h2.609c0.58,0,1.075,0.06,1.483,0.179
		c0.41,0.118,0.743,0.286,1.002,0.499c0.259,0.213,0.446,0.464,0.565,0.753c0.117,0.291,0.176,0.606,0.176,0.946
		c0,0.263-0.035,0.506-0.104,0.738c-0.07,0.23-0.174,0.445-0.311,0.641c-0.138,0.197-0.307,0.371-0.507,0.526
		c-0.2,0.154-0.43,0.28-0.69,0.38c0.125,0.062,0.24,0.139,0.349,0.23c0.108,0.092,0.203,0.203,0.283,0.336l1.707,2.791H66.19
		c-0.312,0-0.535-0.117-0.671-0.352l-1.332-2.33c-0.059-0.103-0.128-0.176-0.207-0.221c-0.079-0.043-0.191-0.066-0.333-0.066h-0.475
		V236.654z M63.172,235.372h0.75c0.252,0,0.469-0.032,0.646-0.097c0.178-0.064,0.324-0.153,0.438-0.268
		c0.113-0.113,0.196-0.247,0.247-0.398c0.052-0.153,0.078-0.317,0.078-0.493c0-0.353-0.115-0.627-0.344-0.825
		c-0.229-0.199-0.585-0.298-1.065-0.298h-0.75V235.372z"/>
	<path fill="#6A7071" d="M76.572,235.607c0,0.58-0.1,1.115-0.3,1.605c-0.2,0.489-0.481,0.914-0.845,1.271
		c-0.364,0.356-0.801,0.637-1.313,0.836c-0.512,0.199-1.08,0.3-1.703,0.3h-3.117V231.6h3.117c0.623,0,1.191,0.101,1.703,0.303
		c0.512,0.201,0.949,0.48,1.313,0.837c0.363,0.355,0.645,0.778,0.845,1.269C76.472,234.499,76.572,235.032,76.572,235.607z
		 M74.667,235.607c0-0.396-0.052-0.752-0.154-1.072c-0.103-0.32-0.25-0.59-0.443-0.813c-0.193-0.223-0.429-0.393-0.708-0.512
		c-0.279-0.119-0.596-0.18-0.952-0.18h-1.245v5.16h1.245c0.355,0,0.673-0.061,0.952-0.18c0.278-0.119,0.514-0.289,0.708-0.512
		c0.192-0.223,0.34-0.493,0.443-0.813S74.667,236.008,74.667,235.607z"/>
</g>
<g>
	<path fill="#6A7071" d="M164.35,239.622h-1.443c-0.161,0-0.294-0.037-0.399-0.112c-0.104-0.074-0.177-0.172-0.218-0.29
		l-0.473-1.397h-3.05l-0.473,1.397c-0.037,0.104-0.108,0.196-0.215,0.278c-0.106,0.083-0.237,0.124-0.391,0.124h-1.454l3.106-8.021
		h1.904L164.35,239.622z M159.196,236.555h2.192l-0.739-2.195c-0.047-0.141-0.103-0.305-0.168-0.493
		c-0.063-0.189-0.127-0.394-0.189-0.613c-0.059,0.224-0.119,0.431-0.182,0.621s-0.121,0.356-0.176,0.496L159.196,236.555z"/>
	<path fill="#6A7071" d="M170.719,237.546c0.044,0,0.088,0.009,0.132,0.024c0.044,0.017,0.086,0.045,0.126,0.085l0.738,0.776
		c-0.323,0.422-0.728,0.74-1.214,0.955s-1.062,0.322-1.726,0.322c-0.609,0-1.155-0.104-1.637-0.311
		c-0.483-0.207-0.892-0.493-1.228-0.859c-0.336-0.364-0.594-0.797-0.773-1.298c-0.18-0.5-0.27-1.046-0.27-1.632
		c0-0.599,0.103-1.148,0.308-1.649c0.206-0.5,0.493-0.933,0.862-1.296s0.81-0.646,1.324-0.848c0.514-0.201,1.081-0.303,1.7-0.303
		c0.301,0,0.585,0.026,0.851,0.08c0.267,0.055,0.515,0.126,0.747,0.221c0.231,0.094,0.444,0.205,0.638,0.336
		c0.195,0.13,0.367,0.272,0.517,0.432l-0.627,0.842c-0.041,0.053-0.088,0.1-0.143,0.141c-0.055,0.043-0.132,0.064-0.232,0.064
		c-0.065,0-0.128-0.015-0.187-0.044c-0.058-0.028-0.122-0.065-0.188-0.108c-0.065-0.041-0.138-0.086-0.217-0.138
		c-0.079-0.049-0.173-0.095-0.28-0.138c-0.109-0.042-0.236-0.077-0.38-0.107c-0.145-0.029-0.314-0.044-0.509-0.044
		c-0.338,0-0.646,0.06-0.925,0.179s-0.519,0.291-0.718,0.513c-0.201,0.222-0.356,0.491-0.468,0.807s-0.168,0.67-0.168,1.063
		c0,0.41,0.057,0.775,0.168,1.095c0.112,0.319,0.265,0.589,0.457,0.808c0.193,0.219,0.417,0.383,0.674,0.498
		c0.256,0.113,0.532,0.17,0.825,0.17c0.169,0,0.323-0.008,0.462-0.024c0.14-0.017,0.269-0.046,0.389-0.085
		c0.119-0.04,0.232-0.092,0.342-0.157c0.107-0.063,0.216-0.144,0.328-0.239c0.043-0.037,0.091-0.066,0.143-0.091
		C170.61,237.559,170.663,237.546,170.719,237.546z"/>
	<path fill="#6A7071" d="M180.226,239.622h-1.872v-3.392h-3.259v3.392h-1.872v-8.021h1.872v3.353h3.259v-3.353h1.872V239.622z"/>
</g>
<g>
	<path fill="#6A7071" d="M278.569,231.602h1.564c0.161,0,0.296,0.037,0.404,0.109c0.108,0.074,0.179,0.17,0.212,0.292l1.101,4.185
		c0.036,0.136,0.073,0.279,0.11,0.435c0.036,0.153,0.064,0.315,0.082,0.483c0.038-0.172,0.078-0.334,0.122-0.486
		c0.043-0.152,0.086-0.296,0.127-0.432l1.299-4.185c0.032-0.103,0.104-0.196,0.212-0.278c0.108-0.082,0.24-0.123,0.393-0.123h0.55
		c0.162,0,0.295,0.035,0.4,0.106s0.177,0.17,0.217,0.294l1.288,4.184c0.041,0.129,0.083,0.267,0.127,0.41
		c0.044,0.146,0.082,0.301,0.116,0.465c0.029-0.162,0.059-0.315,0.091-0.461c0.031-0.146,0.063-0.285,0.096-0.414l1.102-4.184
		c0.03-0.107,0.099-0.199,0.208-0.281c0.11-0.08,0.243-0.121,0.396-0.121h1.464l-2.478,8.021h-1.684l-1.509-4.973
		c-0.024-0.076-0.051-0.16-0.079-0.252c-0.027-0.092-0.055-0.188-0.081-0.291c-0.025,0.103-0.051,0.199-0.08,0.291
		c-0.027,0.092-0.054,0.176-0.079,0.252l-1.531,4.973h-1.684L278.569,231.602z"/>
	<path fill="#6A7071" d="M293.666,239.622h-1.872v-8.021h1.872V239.622z"/>
	<path fill="#6A7071" d="M297.672,236.654v2.968h-1.859v-8.021h2.608c0.58,0,1.075,0.06,1.484,0.179
		c0.409,0.118,0.743,0.286,1.002,0.499s0.446,0.464,0.565,0.753c0.116,0.291,0.176,0.606,0.176,0.946
		c0,0.263-0.037,0.506-0.105,0.738c-0.07,0.23-0.174,0.445-0.311,0.641c-0.137,0.197-0.308,0.371-0.506,0.526
		c-0.201,0.154-0.432,0.28-0.69,0.38c0.124,0.062,0.239,0.139,0.349,0.23s0.204,0.203,0.284,0.336l1.707,2.791h-1.685
		c-0.312,0-0.535-0.117-0.67-0.352l-1.334-2.33c-0.059-0.103-0.127-0.176-0.205-0.221c-0.08-0.043-0.19-0.066-0.334-0.066h-0.477
		V236.654z M297.672,235.372h0.749c0.253,0,0.47-0.032,0.647-0.097s0.322-0.153,0.438-0.268c0.113-0.113,0.196-0.247,0.248-0.398
		c0.051-0.153,0.077-0.317,0.077-0.493c0-0.353-0.115-0.627-0.345-0.825c-0.229-0.199-0.584-0.298-1.065-0.298h-0.749V235.372
		L297.672,235.372z"/>
	<path fill="#6A7071" d="M308.958,231.602v1.431h-3.292v1.872h2.521v1.376h-2.521v1.911h3.292v1.431h-5.164v-8.021H308.958z"/>
</g>
<g>
	<path fill="#6A7071" d="M393.906,239.622h-1.872v-8.021h1.872V239.622z"/>
	<path fill="#6A7071" d="M397.237,231.611c0.054,0.008,0.104,0.021,0.147,0.041s0.085,0.049,0.126,0.086s0.086,0.086,0.139,0.147
		l3.809,4.817c-0.015-0.154-0.025-0.305-0.032-0.448c-0.008-0.146-0.012-0.28-0.012-0.411V231.6h1.641v8.021h-0.969
		c-0.144,0-0.264-0.021-0.364-0.066c-0.1-0.044-0.193-0.123-0.286-0.242l-3.781-4.777c0.011,0.14,0.02,0.275,0.027,0.41
		c0.008,0.134,0.012,0.259,0.012,0.376v4.3h-1.642V231.6h0.979C397.113,231.602,397.181,231.604,397.237,231.611z"/>
	<path fill="#6A7071" d="M409.507,233.23c-0.054,0.088-0.112,0.154-0.173,0.197c-0.06,0.045-0.139,0.066-0.234,0.066
		c-0.084,0-0.174-0.027-0.271-0.08c-0.097-0.053-0.207-0.113-0.329-0.18c-0.123-0.065-0.264-0.125-0.422-0.178
		c-0.158-0.055-0.338-0.082-0.539-0.082c-0.349,0-0.609,0.074-0.779,0.224c-0.171,0.147-0.256,0.35-0.256,0.603
		c0,0.162,0.051,0.295,0.154,0.402c0.103,0.105,0.237,0.197,0.404,0.275c0.166,0.076,0.357,0.147,0.572,0.211
		s0.435,0.136,0.658,0.215c0.224,0.08,0.443,0.172,0.658,0.279c0.215,0.105,0.405,0.24,0.572,0.405
		c0.167,0.166,0.303,0.367,0.405,0.603c0.104,0.238,0.154,0.522,0.154,0.857c0,0.37-0.064,0.717-0.192,1.04
		c-0.129,0.323-0.314,0.604-0.56,0.847c-0.244,0.239-0.545,0.429-0.903,0.566c-0.357,0.139-0.764,0.206-1.219,0.206
		c-0.25,0-0.503-0.024-0.762-0.078c-0.261-0.05-0.51-0.123-0.752-0.216c-0.242-0.094-0.471-0.205-0.683-0.333
		c-0.213-0.128-0.398-0.271-0.556-0.429l0.55-0.871c0.04-0.066,0.097-0.119,0.171-0.159c0.073-0.041,0.151-0.062,0.236-0.062
		c0.108,0,0.221,0.034,0.333,0.105c0.11,0.068,0.239,0.146,0.379,0.23c0.142,0.084,0.304,0.16,0.488,0.23
		c0.182,0.068,0.399,0.104,0.647,0.104c0.338,0,0.602-0.073,0.789-0.223c0.188-0.148,0.28-0.385,0.28-0.708
		c0-0.188-0.052-0.339-0.154-0.458c-0.103-0.117-0.238-0.214-0.405-0.291c-0.167-0.078-0.356-0.145-0.569-0.203
		s-0.432-0.123-0.655-0.195s-0.441-0.16-0.655-0.266c-0.213-0.104-0.401-0.24-0.568-0.412s-0.303-0.384-0.405-0.639
		c-0.104-0.256-0.154-0.57-0.154-0.945c0-0.301,0.062-0.595,0.183-0.88c0.121-0.286,0.299-0.542,0.533-0.766
		c0.235-0.224,0.522-0.402,0.865-0.537c0.341-0.134,0.732-0.201,1.172-0.201c0.246,0,0.486,0.021,0.719,0.058
		c0.233,0.039,0.454,0.097,0.663,0.172c0.209,0.074,0.405,0.164,0.587,0.27c0.182,0.104,0.345,0.223,0.486,0.354L409.507,233.23z"/>
	<path fill="#6A7071" d="M417.488,231.602v1.476h-2.257v6.545h-1.86v-6.545h-2.257v-1.476H417.488z"/>
	<path fill="#6A7071" d="M425.504,239.622h-1.443c-0.16,0-0.294-0.037-0.397-0.112c-0.104-0.074-0.177-0.172-0.219-0.29
		l-0.474-1.397h-3.049l-0.473,1.397c-0.037,0.104-0.109,0.196-0.215,0.278c-0.106,0.083-0.236,0.124-0.392,0.124h-1.453l3.105-8.021
		h1.904L425.504,239.622z M420.352,236.555h2.191l-0.738-2.195c-0.048-0.141-0.104-0.305-0.168-0.493
		c-0.063-0.189-0.127-0.394-0.188-0.613c-0.06,0.224-0.12,0.431-0.183,0.621c-0.062,0.19-0.121,0.356-0.176,0.496L420.352,236.555z"
		/>
	<path fill="#6A7071" d="M428.675,236.939v2.683h-1.859v-8.021h2.829c0.565,0,1.052,0.066,1.456,0.201
		c0.406,0.135,0.74,0.318,1.002,0.553c0.264,0.235,0.457,0.514,0.582,0.832c0.124,0.319,0.188,0.664,0.188,1.035
		c0,0.4-0.065,0.769-0.192,1.102c-0.129,0.334-0.324,0.621-0.59,0.859c-0.263,0.238-0.599,0.426-1.004,0.56s-0.885,0.2-1.438,0.2
		h-0.973V236.939z M428.675,235.537h0.969c0.484,0,0.833-0.115,1.047-0.348c0.212-0.229,0.317-0.554,0.317-0.967
		c0-0.185-0.027-0.352-0.082-0.502c-0.055-0.148-0.139-0.279-0.25-0.388c-0.113-0.106-0.253-0.192-0.424-0.25
		c-0.171-0.06-0.374-0.088-0.608-0.088h-0.969V235.537L428.675,235.537z"/>
	<path fill="#6A7071" d="M441.029,239.622h-1.442c-0.162,0-0.295-0.037-0.398-0.112c-0.104-0.074-0.178-0.172-0.219-0.29
		l-0.474-1.397h-3.049l-0.474,1.397c-0.036,0.104-0.108,0.196-0.215,0.278c-0.105,0.083-0.235,0.124-0.391,0.124h-1.453l3.105-8.021
		h1.903L441.029,239.622z M435.876,236.555h2.191l-0.737-2.195c-0.048-0.141-0.104-0.305-0.168-0.493
		c-0.063-0.189-0.127-0.394-0.19-0.613c-0.059,0.224-0.118,0.431-0.182,0.621c-0.063,0.19-0.121,0.356-0.176,0.496L435.876,236.555z
		"/>
	<path fill="#6A7071" d="M445.235,236.572v3.05h-1.861v-3.05l-2.907-4.971h1.642c0.161,0,0.288,0.037,0.385,0.112
		c0.096,0.076,0.172,0.171,0.23,0.289l1.136,2.334c0.091,0.188,0.176,0.36,0.253,0.519s0.145,0.313,0.203,0.468
		c0.055-0.157,0.121-0.314,0.197-0.474c0.078-0.158,0.16-0.328,0.248-0.513l1.123-2.334c0.022-0.047,0.053-0.095,0.091-0.144
		c0.039-0.047,0.083-0.09,0.133-0.129c0.05-0.037,0.106-0.069,0.171-0.092c0.063-0.024,0.135-0.037,0.212-0.037h1.65
		L445.235,236.572z"/>
</g>
<g>
	<g>
		<path fill="#6A7071" d="M509.921,236.7v2.698h-1.692v-7.292h2.373c0.527,0,0.977,0.055,1.349,0.163
			c0.373,0.108,0.676,0.259,0.911,0.453s0.405,0.422,0.513,0.685c0.106,0.265,0.16,0.551,0.16,0.861c0,0.237-0.032,0.46-0.097,0.67
			c-0.063,0.21-0.156,0.405-0.282,0.583c-0.125,0.179-0.278,0.337-0.46,0.478c-0.183,0.142-0.392,0.256-0.629,0.347
			c0.113,0.057,0.221,0.127,0.318,0.21s0.185,0.186,0.257,0.305l1.552,2.538h-1.531c-0.284,0-0.488-0.106-0.61-0.321l-1.211-2.115
			c-0.054-0.094-0.117-0.161-0.188-0.2c-0.071-0.04-0.174-0.062-0.304-0.062H509.921z M509.921,235.534h0.681
			c0.23,0,0.427-0.027,0.589-0.086c0.161-0.06,0.294-0.14,0.397-0.244c0.104-0.103,0.177-0.224,0.226-0.361
			c0.047-0.139,0.07-0.288,0.07-0.448c0-0.319-0.104-0.571-0.313-0.751s-0.532-0.27-0.968-0.27h-0.682L509.921,235.534
			L509.921,235.534z"/>
		<path fill="#6A7071" d="M520.18,232.106v1.301h-2.992v1.702h2.293v1.251h-2.293v1.737h2.992v1.301h-4.693v-7.292H520.18z"/>
		<path fill="#6A7071" d="M525.663,236.46c0.062,0.137,0.122,0.277,0.178,0.421c0.058-0.147,0.117-0.29,0.181-0.429
			c0.063-0.139,0.128-0.273,0.194-0.403l1.872-3.688c0.033-0.063,0.068-0.112,0.104-0.147c0.034-0.034,0.072-0.061,0.116-0.077
			s0.094-0.025,0.147-0.025c0.055,0,0.119,0,0.192,0h1.292v7.287h-1.492v-4.194c0-0.203,0.01-0.424,0.031-0.66l-1.933,3.748
			c-0.061,0.117-0.142,0.205-0.243,0.266c-0.103,0.061-0.217,0.09-0.348,0.09h-0.23c-0.13,0-0.245-0.031-0.348-0.09
			c-0.102-0.061-0.183-0.148-0.243-0.266l-1.941-3.754c0.014,0.117,0.022,0.233,0.029,0.349c0.008,0.114,0.011,0.22,0.011,0.317
			v4.193h-1.491v-7.287h1.291c0.074,0,0.138,0,0.191,0c0.057,0,0.104,0.01,0.149,0.025c0.043,0.017,0.082,0.043,0.117,0.076
			c0.036,0.037,0.068,0.086,0.103,0.148l1.876,3.702C525.537,236.19,525.602,236.323,525.663,236.46z"/>
		<path fill="#6A7071" d="M533.594,239.398h-1.703v-7.292h1.703V239.398z"/>
		<path fill="#6A7071" d="M540.839,232.106v1.342h-2.052v5.95h-1.691v-5.95h-2.053v-1.342H540.839z"/>
		<path fill="#6A7071" d="M547.435,232.106v1.342h-2.052v5.95h-1.689v-5.95h-2.054v-1.342H547.435z"/>
		<path fill="#6A7071" d="M554.722,239.398h-1.311c-0.147,0-0.269-0.034-0.364-0.103c-0.095-0.068-0.16-0.155-0.197-0.264
			l-0.43-1.271h-2.773l-0.43,1.271c-0.033,0.094-0.099,0.178-0.195,0.254c-0.097,0.075-0.215,0.112-0.354,0.112h-1.321l2.823-7.292
			h1.731L554.722,239.398z M550.038,236.61h1.992l-0.671-1.996c-0.043-0.127-0.095-0.277-0.152-0.449
			c-0.058-0.17-0.115-0.356-0.172-0.558c-0.054,0.203-0.108,0.392-0.165,0.565c-0.057,0.173-0.111,0.324-0.16,0.451L550.038,236.61z
			"/>
		<path fill="#6A7071" d="M556.988,232.116c0.05,0.008,0.095,0.021,0.135,0.039c0.04,0.02,0.08,0.043,0.115,0.077
			c0.038,0.033,0.079,0.079,0.126,0.136l3.463,4.379c-0.013-0.141-0.023-0.276-0.029-0.408c-0.007-0.133-0.011-0.256-0.011-0.372
			v-3.859h1.492v7.292h-0.881c-0.131,0-0.24-0.02-0.331-0.06s-0.178-0.113-0.261-0.22l-3.438-4.345
			c0.01,0.127,0.019,0.251,0.025,0.374c0.006,0.121,0.009,0.235,0.009,0.342v3.909h-1.491v-7.292h0.891
			C556.877,232.106,556.938,232.11,556.988,232.116z"/>
		<path fill="#6A7071" d="M568.979,237.513c0.041,0,0.081,0.007,0.121,0.021c0.04,0.016,0.078,0.043,0.115,0.077l0.671,0.706
			c-0.294,0.385-0.662,0.674-1.104,0.868c-0.443,0.195-0.966,0.293-1.569,0.293c-0.554,0-1.051-0.094-1.49-0.283
			c-0.438-0.188-0.81-0.448-1.114-0.78c-0.307-0.334-0.541-0.727-0.704-1.182c-0.163-0.456-0.245-0.949-0.245-1.484
			c0-0.543,0.094-1.043,0.281-1.5c0.187-0.455,0.446-0.849,0.782-1.179c0.336-0.331,0.737-0.586,1.205-0.77
			c0.468-0.185,0.982-0.276,1.547-0.276c0.273,0,0.529,0.024,0.772,0.072c0.242,0.049,0.468,0.115,0.679,0.201
			c0.21,0.084,0.404,0.187,0.58,0.306c0.178,0.118,0.334,0.249,0.472,0.394l-0.57,0.766c-0.038,0.046-0.08,0.089-0.13,0.126
			c-0.05,0.04-0.121,0.058-0.21,0.058c-0.062,0-0.117-0.013-0.17-0.039c-0.055-0.027-0.11-0.06-0.17-0.098
			c-0.062-0.039-0.126-0.08-0.198-0.125c-0.072-0.046-0.157-0.087-0.255-0.125c-0.099-0.039-0.213-0.072-0.345-0.098
			c-0.133-0.027-0.286-0.04-0.463-0.04c-0.308,0-0.587,0.053-0.842,0.161c-0.252,0.108-0.471,0.265-0.652,0.466
			c-0.183,0.202-0.324,0.446-0.426,0.733c-0.101,0.287-0.151,0.607-0.151,0.967c0,0.373,0.051,0.705,0.151,0.994
			c0.103,0.291,0.24,0.535,0.416,0.733c0.176,0.2,0.379,0.351,0.613,0.453c0.234,0.104,0.484,0.155,0.751,0.155
			c0.153,0,0.293-0.008,0.42-0.022c0.126-0.015,0.244-0.041,0.354-0.078c0.108-0.036,0.212-0.084,0.311-0.143
			c0.098-0.058,0.197-0.132,0.297-0.218c0.041-0.033,0.084-0.061,0.13-0.082C568.881,237.522,568.93,237.513,568.979,237.513z"/>
		<path fill="#6A7071" d="M575.951,232.106v1.301h-2.993v1.702h2.292v1.251h-2.292v1.737h2.993v1.301h-4.694v-7.292H575.951z"/>
	</g>
</g>
</svg>
