<?xml version="1.0" encoding="utf-8"?>
<!-- Generator: Adobe Illustrator 16.0.0, SVG Export Plug-In . SVG Version: 6.00 Build 0)  -->
<!DOCTYPE svg PUBLIC "-//W3C//DTD SVG 1.1//EN" "http://www.w3.org/Graphics/SVG/1.1/DTD/svg11.dtd">
<svg version="1.1" id="Layer_1" xmlns="http://www.w3.org/2000/svg" xmlns:xlink="http://www.w3.org/1999/xlink" x="0px" y="0px"
	 width="47.986px" height="63.281px" viewBox="0 0 47.986 63.281" enable-background="new 0 0 47.986 63.281" xml:space="preserve">
<g>
	<g>
		<path fill-rule="evenodd" clip-rule="evenodd" fill="#999999" d="M10.919,30.695v2h26v-2H10.919z M13.919,39.695h20v-2h-20V39.695
			z M17.919,46.695h12v-2h-12V46.695z"/>
	</g>
</g>
<path fill="#D9D9D9" d="M46.919,61.695h-46v-46h46V61.695z M2.919,59.695h42v-42h-42V59.695z"/>
<g>
	<path fill="#626262" d="M8.542,6.475c0.057,0.138,0.115,0.277,0.17,0.417c0.057-0.144,0.115-0.286,0.174-0.426
		c0.061-0.14,0.125-0.274,0.193-0.402l2.568-4.806c0.031-0.06,0.064-0.108,0.098-0.144c0.035-0.036,0.072-0.063,0.115-0.078
		C11.901,1.02,11.948,1.01,12,1.006C12.051,1.002,12.114,1,12.186,1h1.219v8.676h-1.422V4.072c0-0.104,0.002-0.219,0.008-0.343
		s0.016-0.25,0.027-0.378l-2.621,4.92C9.336,8.384,9.258,8.471,9.163,8.533C9.067,8.595,8.954,8.626,8.827,8.626H8.604
		c-0.129,0-0.24-0.031-0.336-0.093C8.172,8.471,8.094,8.384,8.034,8.271L5.375,3.334c0.016,0.132,0.027,0.261,0.033,0.387
		s0.01,0.243,0.01,0.352v5.604H3.997V1h1.217c0.072,0,0.135,0.002,0.188,0.006C5.452,1.01,5.499,1.02,5.542,1.036
		c0.041,0.016,0.08,0.042,0.117,0.078c0.035,0.035,0.07,0.084,0.102,0.144l2.592,4.818C8.42,6.204,8.483,6.337,8.542,6.475z"/>
	<path fill="#626262" d="M22.067,1v1.284h-3.846v2.405h3.031v1.242h-3.031v2.454h3.846v1.29h-5.471V1H22.067z"/>
	<path fill="#626262" d="M25.932,1.009c0.049,0.006,0.092,0.018,0.129,0.036c0.039,0.018,0.076,0.044,0.111,0.078
		s0.076,0.079,0.119,0.135l4.555,5.802c-0.016-0.14-0.027-0.276-0.033-0.411c-0.006-0.134-0.008-0.259-0.008-0.375V1h1.422v8.676
		h-0.834c-0.129,0-0.234-0.02-0.318-0.06s-0.166-0.112-0.246-0.217l-4.537-5.777c0.014,0.128,0.021,0.255,0.027,0.381
		s0.01,0.241,0.01,0.345v5.328h-1.422V1h0.846C25.825,1,25.883,1.003,25.932,1.009z"/>
	<path fill="#626262" d="M38.911,8.374c0.311,0,0.59-0.052,0.836-0.156c0.246-0.104,0.455-0.25,0.625-0.438
		c0.17-0.188,0.299-0.415,0.389-0.684c0.09-0.268,0.135-0.567,0.135-0.9V1h1.615v5.195c0,0.517-0.084,0.993-0.25,1.432
		c-0.166,0.438-0.404,0.815-0.717,1.134c-0.311,0.318-0.689,0.566-1.133,0.744c-0.445,0.178-0.945,0.267-1.5,0.267
		c-0.557,0-1.057-0.089-1.5-0.267c-0.445-0.178-0.822-0.426-1.131-0.744c-0.311-0.318-0.549-0.696-0.715-1.134
		c-0.166-0.438-0.248-0.915-0.248-1.432V1h1.613v5.189c0,0.332,0.045,0.633,0.135,0.9s0.219,0.497,0.387,0.687
		c0.168,0.19,0.375,0.338,0.621,0.441C38.319,8.322,38.598,8.374,38.911,8.374z"/>
</g>
</svg>
