<?xml version="1.0" encoding="utf-8"?>
<!-- Generator: Adobe Illustrator 16.0.0, SVG Export Plug-In . SVG Version: 6.00 Build 0)  -->
<!DOCTYPE svg PUBLIC "-//W3C//DTD SVG 1.1//EN" "http://www.w3.org/Graphics/SVG/1.1/DTD/svg11.dtd">
<svg version="1.1" id="Layer_1" xmlns="http://www.w3.org/2000/svg" xmlns:xlink="http://www.w3.org/1999/xlink" x="0px" y="0px"
	 width="47.986px" height="63.281px" viewBox="0 0 47.986 63.281" enable-background="new 0 0 47.986 63.281" xml:space="preserve">
<g>
	<path fill="#292929" d="M46.993,62.012h-46v-46h46V62.012z M2.993,60.012h42v-42h-42V60.012z"/>
	<g>
		<path fill="#626262" d="M9.281,6.744c0.057,0.138,0.115,0.277,0.17,0.417c0.057-0.144,0.115-0.286,0.174-0.426
			C9.686,6.595,9.75,6.46,9.818,6.333l2.568-4.806c0.031-0.06,0.064-0.108,0.098-0.144c0.035-0.036,0.072-0.063,0.115-0.078
			c0.041-0.017,0.088-0.026,0.141-0.03c0.051-0.004,0.113-0.006,0.186-0.006h1.219v8.676h-1.422V4.341
			c0-0.104,0.002-0.219,0.008-0.343s0.016-0.25,0.027-0.378l-2.621,4.92C10.076,8.653,9.998,8.74,9.902,8.802
			C9.807,8.864,9.693,8.895,9.566,8.895H9.344c-0.129,0-0.24-0.031-0.336-0.093C8.912,8.74,8.834,8.653,8.773,8.541L6.115,3.603
			C6.131,3.735,6.143,3.864,6.148,3.99s0.01,0.243,0.01,0.352v5.604H4.736V1.269h1.217c0.072,0,0.135,0.002,0.188,0.006
			c0.051,0.004,0.098,0.014,0.141,0.03c0.041,0.016,0.08,0.042,0.117,0.078C6.434,1.418,6.469,1.467,6.5,1.527l2.592,4.818
			C9.16,6.473,9.223,6.606,9.281,6.744z"/>
		<path fill="#626262" d="M22.807,1.269v1.284h-3.846v2.405h3.031v1.242h-3.031v2.454h3.846v1.29h-5.471V1.269H22.807z"/>
		<path fill="#626262" d="M26.672,1.278c0.049,0.006,0.092,0.018,0.129,0.036c0.039,0.018,0.076,0.044,0.111,0.078
			s0.076,0.079,0.119,0.135l4.555,5.802c-0.016-0.14-0.027-0.276-0.033-0.411c-0.006-0.134-0.008-0.259-0.008-0.375V1.269h1.422
			v8.676h-0.834c-0.129,0-0.234-0.02-0.318-0.06s-0.166-0.112-0.246-0.217l-4.537-5.777c0.014,0.128,0.021,0.255,0.027,0.381
			s0.01,0.241,0.01,0.345v5.328h-1.422V1.269h0.846C26.564,1.269,26.623,1.272,26.672,1.278z"/>
		<path fill="#626262" d="M39.65,8.643c0.311,0,0.59-0.052,0.836-0.156c0.246-0.104,0.455-0.25,0.625-0.438
			c0.17-0.188,0.299-0.415,0.389-0.684c0.09-0.268,0.135-0.567,0.135-0.9V1.269h1.615v5.195c0,0.517-0.084,0.993-0.25,1.432
			c-0.166,0.438-0.404,0.815-0.717,1.134c-0.311,0.318-0.689,0.566-1.133,0.744c-0.445,0.178-0.945,0.267-1.5,0.267
			c-0.557,0-1.057-0.089-1.5-0.267c-0.445-0.178-0.822-0.426-1.131-0.744c-0.311-0.318-0.549-0.696-0.715-1.134
			c-0.166-0.438-0.248-0.915-0.248-1.432V1.269h1.613v5.189c0,0.332,0.045,0.633,0.135,0.9s0.219,0.497,0.387,0.687
			c0.168,0.19,0.375,0.338,0.621,0.441C39.059,8.591,39.338,8.643,39.65,8.643z"/>
	</g>
	<g>
		<path fill="#7E7E7E" d="M22.885,38.771l-7.611-8.956h1.574c0.146,0,0.252,0.025,0.32,0.077c0.068,0.053,0.127,0.113,0.18,0.183
			l6.709,8.06c0.031-0.069,0.064-0.137,0.1-0.201c0.037-0.065,0.082-0.132,0.133-0.201l6.475-7.645
			c0.063-0.069,0.131-0.132,0.203-0.188s0.16-0.084,0.266-0.084h1.527l-7.627,8.892l7.939,9.503h-1.576
			c-0.145,0-0.26-0.037-0.342-0.11c-0.084-0.073-0.152-0.146-0.203-0.215l-6.957-8.476c-0.043,0.13-0.115,0.256-0.219,0.377
			l-6.834,8.099c-0.072,0.078-0.156,0.152-0.248,0.222c-0.094,0.069-0.203,0.104-0.328,0.104h-1.451L22.885,38.771z"/>
	</g>
</g>
</svg>
